<?xml version="1.0" encoding="UTF-8"?>
<svg width="65px" height="25px" viewBox="0 0 65 25" version="1.1" xmlns="http://www.w3.org/2000/svg" xmlns:xlink="http://www.w3.org/1999/xlink">
    <!-- Generator: Sketch 51.3 (57544) - http://www.bohemiancoding.com/sketch -->
    <title>Arrow-04</title>
    <desc>Created with Sketch.</desc>
    <defs></defs>
    <g id="Page-1" stroke="none" stroke-width="1" fill="none" fill-rule="evenodd">
        <g id="Arrow-04" transform="translate(-1.000000, -1.000000)" fill="#F9EFD4" fill-rule="nonzero">
            <path d="M66,25.07 C66.0022423,25.2759093 65.9353395,25.476618 65.81,25.64 C65.6576756,25.8378335 65.4329021,25.966937 65.1852659,25.9988295 C64.9376298,26.0307221 64.6874795,25.962783 64.49,25.81 L33.34,3.09 L2.48,25.83 C2.05740602,26.1305773 1.47122258,26.0321343 1.17,25.61 C1.02396783,25.4067088 0.966047313,25.1531345 1.00933196,24.9066003 C1.0526166,24.660066 1.19345167,24.4413878 1.4,24.3 L32.82,1.17 C33.152582,0.923311258 33.607418,0.923311258 33.94,1.17 L65.64,24.3 C65.8771356,24.4836059 66.0111748,24.7703009 66,25.07 Z" id="Shape"></path>
        </g>
    </g>
</svg>