<svg xmlns="http://www.w3.org/2000/svg" xmlns:xlink="http://www.w3.org/1999/xlink" viewBox="0 0 590 590"><defs><clipPath id="a"><rect width="590" height="590" style="fill:none"/></clipPath></defs><title>Goznak-logo</title><g style="clip-path:url(#a)"><path d="M598.34,438.72c-1.21,20.42-6.13,55-26.29,85-12.56,18.86-29.59,33.44-49.76,44.9-16.33,9.29-33.87,16.07-51.89,21.87-20,6.45-40.53,11.45-60.9,16.85-17.2,4.56-34.38,9.28-50.91,15.78-12.53,4.95-24.5,10.84-35.19,18.82A85.22,85.22,0,0,0,299.77,668h-0.6a25.56,25.56,0,0,0-1.18-2.5c-7.77-12.33-18.44-22-31.2-29.69-13.13-8-27.39-13.62-42.09-18.42-18.59-6.1-37.63-10.75-56.57-15.73-19.81-5.22-39.55-10.67-58.62-18-17.88-6.84-34.83-15.21-50-26.49a136,136,0,0,1-48.06-64.94,182.42,182.42,0,0,1-9.83-39.69C0.95,447.09.48,444,0,433.66V-41H598.34V438.72ZM299.47,636.54a1.89,1.89,0,0,0,.59-0.26c0.51-.56,1-1.14,1.47-1.75a96.24,96.24,0,0,1,14.31-14.3c11.84-9.56,25.34-16.47,39.63-22.16,17.62-7,36-12,54.32-16.86,19.12-5,38.33-9.79,57.16-15.74,18.16-5.75,35.79-12.57,52.23-21.89,24.81-14.09,43.92-33,56.15-57.84,9.87-20.06,14.69-41.31,16.17-63.21,0.84-12.43.55-24.89,0.55-37.34,0.06-142.63.06-419.91,0.06-419.91H6.3v431A304.33,304.33,0,0,0,8.42,430.2a181.66,181.66,0,0,0,8,37.05c8.84,26.89,24.66,49.3,48.51,66.55,14.22,10.31,30,18,46.55,24.4,17.69,6.8,36,11.88,54.33,16.81,17.94,4.83,35.94,9.53,53.78,14.7A224.53,224.53,0,0,1,263.2,607c13.86,7.37,26.05,16.58,35.48,28.77A5.43,5.43,0,0,0,299.47,636.54Z" style="fill:#796743"/><path d="M519.29,348.67c-9.72,61.75-40.21,104.1-40.21,104.1l12.62,0.13s-44.65,50.95-74,48.36c-3.86-.35,61.94-54.06,82.78-166.15,9.73-52.33-2.3-108.26-2.3-108.26C510.1,236,528.28,291.73,519.29,348.67Zm-65.1-152.89a541.27,541.27,0,0,1,3.18,81.32c-3,81.95-24.83,130.19-61.48,173.14-9.46,11.07-90.55,84.85-90.55,84.85,69,1.52,133-72.68,133-72.68l-16.82.08c0.34-.94,40.79-41.47,55.9-120.52,12.81-67-11.08-127.74-11.08-127.74ZM372.28,461.85l-27.78,0S429,404,429,279.34c0-66.64-10.14-117.2-10.14-117.2l-22-36.63v0.17l-0.22-.37-0.17,20.57V150c0,24.81-10,58.24-26.28,74.51a89.51,89.51,0,0,1-63.47,26.3c36.68,12.39,75.78-6,96.39-38.86,5.47,43.19,8.06,91.64-7.66,134-12.52,33.72-32.36,61.95-53.12,84.54v-32.9l-22.54-15.39s0.52,33.36-.91,32.64c0,0-11-5.87-15.37-11.33-11.47-10.26-20.85-26.07-20.85-26.07s0.61,37.29-.69,36.46c-23.49-15-28.42-40-28.42-40,0.17,0.31-.34,25.88-0.34,25.88a84.35,84.35,0,0,1-16.8-12.1c-7.81-7.39-12.66-20-12.66-20L163.43,379.6l-7.67,24L167,393.16,210.47,385A130.08,130.08,0,0,0,224,402.48c8.28,9,22.69,18.43,22.69,18.43,0.09-.46.11-5.63,0.09-7.5C262,431.49,266.07,435,273.37,439.91A229.12,229.12,0,0,0,301,455.84s0.37-30.1.53-29.9a86.3,86.3,0,0,0,23.31,22.34A388.21,388.21,0,0,1,259.94,497c-1.06.7-39.84,23.61-37.61,24.25C293.38,541.49,372.28,461.85,372.28,461.85ZM516.19,421l0.06-.22c11.94-43.15,41.88-104.32,5.95-205.27,15.09,16.22,24.43,42.74,28.56,67-0.1-7.09-.5-14.31-1.28-21.62-9.68-91.55-60.37-160.2-114.18-195.61C402.35,43.6,375.24,37,368.21,48.07c-5.92,9.36,1.41,41.2,1.85,50.59,0.9,19.76,5.19,59.51-13.09,74.87C333.35,193.37,266,140,266,140s9.91,2.94,20.27-15.21c0.77-1.35,1.44-2.67,2.06-4,5.91-20.44,7.31-40.68-5.14-81.84,3.75-2.06,12.14-5.05,18.46-7-38.72.87-73,.09-73.79,0.09,0,18.63-21.05,16.85-21.05,7.22-20.27-.39-31-1.85-29.43,25.93,0,0,13.48-2.45,18.25-2.74,34.41-2,40,29.62,37.17,50.65C230,133.6,219,129.42,207.23,166c-10.58,46,8.25,70.24,31.64,105.32-20.06-10.2-21.87-11.76-35.91-26,7.32,34,29.13,73.94,34.56,83.53,35.23-9,43.67-18.32,43.67-22.11v24c-5.32,8.34-29.13,12.13-69,20.56-55.73,9.86-53.77,10.59-62.42,5.13-6-3.77-8.66-11.2-10.52-14.14-1.44.08-28.58,2.92-34.9,4.09-3.43.64-7.09,5.51-6.05,11,1.41,7.41,5.56,9.76,13.82,9l0.07,2.28c-0.15,0-10.72,1.29-9.4,11.24s12.24,10.45,12.31,10.45c0.23,0,.13,1.39.13,1.39s-9.66,3.56-7.4,13.94,13,8.86,15.91,8.35l24.68-2.77,7.27,58.56-25.51,2.82-5.65-50.54a50.67,50.67,0,0,1-9.6.84c-3.8-.13-19.1-0.49-21.47-13.09-2-10.81,4-14.93,4-15-0.95-.61-8.93-1.58-10.54-10.73s5.15-13.48,5.92-14.43c-0.43-.4-6.84-2-8.54-11.68s2.89-14.18,4.78-16.07A21.49,21.49,0,0,1,96,337.42c0.15-.08.35-0.14,0.59-0.25L49.25,342s17.35-44.51,68.66-48.32c53.2-3.94,75.66,33.49,75.66,33.49l-44.81,4.59c1.45,3,4.14,7.76,6.8,9.17,7.84,4.12,40.9-3.94,52.79-6,0.33-.06.63-0.1,1-0.17-5.27-11.24-26.93-59.25-34.64-104.43-16.57.6-47.26,1.09-49.7-3.36-5.92-10.87-3.62-11.57-6.24-21.48s-20-14.49-27.49-4.92c-9.31,11.84-5.74,27.06,14.37,30.56-0.73-.12-0.07-0.2-0.24-4.55l6.78,0a1.19,1.19,0,0,1,.26.06c-0.29,7.79,1.06,11.27,4.86,14.5-16.9,2.44-28.34-3.77-33.86-13a33.52,33.52,0,0,1-11.63-.49,11.31,11.31,0,0,0-3.55,9.66c0.83,8.47,6.8,10.28,11.68,10.16,7.7-.15,11.79-9.09,11.87-9.11l-0.3,16.85,85-.26s-14.83,23.57-39.26,33.19A89.44,89.44,0,0,1,101.76,294c-24.42-.62-40.5-9.6-50.15-18.49a99,99,0,0,1-16.27-20.1l38-.13A21.93,21.93,0,0,1,61.1,243.87c-4.25-9.41-1.05-15.14,3-19.12a23.23,23.23,0,0,1-5.29-3.92A23.87,23.87,0,0,1,53.2,212a26.36,26.36,0,0,1,.09-18.24c2.35-6.7,9-13.62,17.93-14.51,7.88-.77,14.77.55,20.71,4.61V131.14l24.69,0.12,0.58,50.48c5.11,0.44,10.69,2.47,13.91,8.45s3.38,15.27,3.38,15.27-0.72,8.84,8.47,10.35l29.72,0.12a126.93,126.93,0,0,1,.15-29.11c2.62-19.16,8.93-32.58,15.07-41.56l0-.07c0.08-.12.18-0.26,0.29-0.4a68.58,68.58,0,0,1,5.19-6.61c4.73-5.83,10.52-12.66,10.67-12.85,9.14-11.44,13.34-20,12.26-34.92-1.61-22.22-45.92-23.75-51.51-10.66-3.72-6.5-4.31-13.4-4.62-20.35s2.83-11.81,4.62-15.18c6.73-11.47,23.38-11.66,35.95-13.6C200.39-.3,286.57,12.31,316.23,33.29c-3.29,1.49-16.17,9.24-16.17,9.24,8.14,17,15.65,76.71,17.21,111.59,27.19,13.64,24.77-23.32,20.16-69.87-2.27-22.94,3.84-37.57,13.69-47.63s23.24-10.42,33.47-9.71c44.37,3,174.6,76.09,179.63,232.67C566.33,325.2,535,411.82,516.19,421ZM88.51,192.7l-0.16-.23C84.83,189.29,65,190.18,64.68,204c-0.15,7.92,2.9,11.9,7,13.9a0.06,0.06,0,0,0,0,0l0,0.09a22.54,22.54,0,0,0,8.06,1.9l0.33,0A29.86,29.86,0,0,1,88.51,192.7Z" style="fill:#796743"/></g></svg>