<?xml version="1.0" standalone="no"?>
<!DOCTYPE svg PUBLIC "-//W3C//DTD SVG 20010904//EN"
 "http://www.w3.org/TR/2001/REC-SVG-20010904/DTD/svg10.dtd">
<svg version="1.0" xmlns="http://www.w3.org/2000/svg"
 width="590.000000pt" height="696.000000pt" viewBox="0 0 590.000000 696.000000"
 preserveAspectRatio="xMidYMid meet">
<metadata>
Created by potrace 1.13, written by Peter Selinger 2001-2015
</metadata>
<g transform="translate(0.000000,696.000000) scale(0.100000,-0.100000)"
fill="#727272" stroke="none">
<path d="M3 4563 c3 -2669 -3 -2442 71 -2699 114 -395 329 -667 686 -869 213
-121 448 -204 975 -345 531 -142 723 -212 910 -334 96 -63 205 -167 250 -238
17 -27 33 -48 36 -48 3 0 20 21 37 48 63 97 206 221 342 295 167 91 339 149
835 282 366 98 564 159 713 221 398 165 668 397 826 713 47 93 108 274 138
411 l23 105 3 2428 2 2427 -2925 0 -2925 0 3 -2397z m5787 103 c0 -2454 3
-2346 -60 -2582 -133 -502 -458 -814 -1063 -1023 -134 -46 -287 -90 -574 -166
-638 -167 -864 -267 -1075 -472 l-86 -85 -79 79 c-134 134 -323 244 -563 328
-58 20 -287 86 -510 147 -223 60 -471 132 -551 158 -505 167 -813 401 -989
750 -77 153 -123 309 -157 530 -16 106 -17 284 -20 2343 l-4 2227 2866 0 2865
0 0 -2234z"/>
<path d="M2154 6425 c-114 -25 -184 -79 -184 -142 0 -13 -3 -23 -7 -23 -5 0
-49 -7 -98 -15 -169 -27 -218 -55 -264 -147 -36 -71 -41 -146 -16 -242 20 -77
22 -79 49 -51 56 56 230 71 336 30 129 -51 170 -136 139 -287 -17 -79 -59
-150 -165 -278 -52 -63 -113 -144 -134 -180 -84 -143 -139 -378 -126 -552 l6
-88 -161 0 c-198 0 -199 1 -217 129 -15 104 -42 154 -97 181 -23 11 -46 20
-52 20 -12 0 -23 169 -23 363 l0 137 -120 0 -120 0 0 -260 0 -260 -42 22 c-33
17 -60 22 -119 22 -67 1 -82 -3 -125 -29 -128 -80 -143 -284 -28 -385 l35 -31
-20 -33 c-40 -65 -17 -162 53 -224 20 -17 42 -33 49 -34 7 -1 -71 -5 -172 -8
l-183 -5 48 -65 c140 -190 302 -278 556 -303 l117 -11 -67 -17 c-144 -37 -262
-108 -369 -223 -63 -67 -143 -186 -143 -211 0 -10 107 -2 389 30 l55 6 -41
-30 c-85 -61 -96 -187 -23 -260 l30 -30 -26 -38 c-21 -31 -25 -46 -21 -86 4
-49 40 -100 78 -112 15 -5 15 -8 -2 -42 -35 -68 -19 -146 40 -195 38 -33 127
-52 197 -44 l51 6 6 -38 c3 -20 16 -130 28 -244 26 -240 4 -215 169 -197 89
11 100 14 100 32 0 22 -58 502 -65 533 -4 20 -6 20 -112 8 -172 -21 -216 -18
-251 11 -20 17 -33 38 -37 64 -8 47 5 75 48 112 l31 27 -32 7 c-17 3 -45 19
-62 35 -25 23 -30 36 -30 74 0 51 21 81 65 92 37 9 26 26 -20 31 -45 5 -60 15
-81 54 -30 59 -6 123 54 138 33 9 289 41 325 41 7 0 20 -15 29 -33 38 -80 114
-137 182 -137 45 0 397 60 621 106 348 71 487 110 535 151 30 25 30 25 30 133
l0 108 -32 -30 c-53 -49 -180 -106 -328 -147 l-68 -19 -75 146 c-114 224 -224
499 -252 632 l-7 35 64 -61 c35 -34 88 -77 118 -96 76 -49 164 -92 154 -76 -4
7 -43 67 -86 132 -133 203 -202 355 -227 500 -26 146 -5 337 54 484 35 86 51
114 147 254 58 84 72 145 66 288 -6 128 -31 198 -93 268 -79 88 -192 116 -355
89 -50 -9 -89 -11 -94 -6 -14 13 8 153 28 184 9 13 30 32 47 40 39 21 209 33
209 16 0 -7 11 -23 25 -36 37 -38 103 -35 143 5 18 18 33 45 37 67 l6 38 349
0 c191 0 346 -3 344 -6 -2 -4 -16 -10 -31 -14 -63 -15 -124 -48 -118 -63 13
-34 55 -214 70 -296 31 -179 12 -413 -41 -518 -27 -53 -85 -123 -118 -140 -12
-6 -34 -14 -51 -18 -29 -6 -27 -8 80 -82 364 -253 637 -343 768 -252 60 42
112 149 133 274 20 114 14 436 -11 590 -8 52 -18 145 -21 205 -5 94 -3 115 13
145 52 100 206 90 448 -29 659 -324 1159 -1032 1304 -1846 21 -116 45 -354 38
-362 -3 -2 -13 31 -22 74 -37 164 -108 340 -185 453 -62 91 -73 93 -44 9 105
-305 157 -680 134 -974 -18 -243 -63 -453 -168 -785 -27 -85 -47 -157 -45
-160 12 -13 106 109 152 198 127 249 227 580 284 942 25 164 30 526 9 680 -77
547 -298 1011 -664 1396 -385 403 -914 677 -1210 626 -122 -21 -194 -72 -262
-186 -70 -116 -78 -219 -45 -601 12 -147 7 -314 -11 -378 -6 -21 -24 -52 -40
-70 -32 -36 -80 -42 -137 -18 -31 13 -33 16 -33 67 0 66 -35 409 -56 554 -24
161 -62 351 -84 415 -11 32 -20 61 -20 65 0 3 34 26 75 49 41 24 75 45 75 46
0 9 -102 60 -179 90 -248 96 -577 139 -757 100z m-1299 -1745 c3 -5 -6 -25
-20 -44 -33 -44 -55 -114 -55 -178 0 -54 -7 -58 -64 -34 -107 45 -111 191 -6
244 46 23 134 30 145 12z m206 -40 c60 -17 95 -60 109 -138 15 -84 37 -146 60
-167 24 -22 190 -38 351 -33 l126 3 26 -120 c49 -223 144 -508 258 -774 27
-62 49 -117 49 -121 0 -10 -252 -58 -375 -71 -70 -8 -108 -8 -127 -1 -32 13
-85 80 -72 91 5 5 95 16 199 26 105 10 199 21 210 25 18 7 9 18 -71 98 -79 79
-105 97 -195 140 -124 60 -204 81 -341 89 l-102 6 78 19 c135 31 271 113 377
225 56 59 99 112 99 122 0 4 -184 5 -410 3 l-410 -4 0 82 0 81 -33 -35 c-78
-83 -197 -48 -197 58 0 65 21 86 84 86 49 0 55 -3 103 -49 60 -58 121 -81 214
-81 l67 0 -19 37 c-10 21 -19 52 -19 70 0 31 -2 33 -35 33 -28 0 -35 -4 -35
-20 0 -26 -14 -25 -76 4 -104 48 -135 139 -82 241 38 72 104 99 189 75z"/>
<path d="M3880 5180 c0 -255 -38 -436 -132 -630 -45 -93 -61 -115 -142 -195
-143 -141 -325 -228 -508 -242 l-83 -6 35 -15 c57 -24 243 -28 335 -7 220 49
377 157 546 377 14 19 16 12 27 -98 54 -520 25 -881 -95 -1204 -95 -256 -251
-507 -490 -789 l-23 -26 0 162 0 161 -107 75 -108 74 -2 -136 c-2 -75 -5 -146
-8 -158 l-5 -23 -49 30 c-60 37 -206 187 -257 265 l-39 58 -6 -169 c-3 -93 -7
-170 -8 -172 -3 -7 -68 45 -109 87 -60 61 -101 123 -139 211 l-33 75 0 -117
c0 -65 -2 -118 -6 -118 -3 0 -31 17 -62 39 -83 56 -147 126 -188 204 -30 58
-39 68 -57 64 -12 -3 -145 -29 -294 -58 l-273 -53 -35 -106 c-19 -58 -35 -109
-35 -114 0 -4 24 14 53 40 l53 49 185 34 c101 18 196 35 210 38 23 4 33 -3 70
-53 64 -88 125 -149 215 -220 45 -35 85 -64 88 -64 3 0 6 14 6 32 0 31 3 29
101 -75 107 -114 162 -156 324 -248 85 -48 101 -54 107 -40 4 9 7 74 7 144 l1
129 41 -52 c22 -28 71 -76 110 -108 38 -31 69 -59 69 -63 0 -12 -221 -193
-345 -284 -69 -49 -198 -135 -287 -189 -284 -174 -363 -227 -347 -236 27 -16
133 -30 219 -30 343 0 752 191 1149 535 l81 70 -131 5 -131 5 84 71 c46 40
121 115 167 167 301 344 482 744 547 1214 40 287 16 875 -56 1346 l-20 129
-97 161 c-53 89 -102 171 -110 182 -11 17 -13 -3 -13 -135z"/>
<path d="M4454 4575 c44 -535 24 -1005 -59 -1382 -63 -282 -180 -560 -334
-788 -148 -220 -208 -283 -741 -774 -146 -134 -278 -257 -295 -273 l-30 -30
95 5 c248 14 522 134 823 360 113 85 367 319 367 338 0 5 -34 9 -75 9 l-76 0
54 68 c220 272 405 687 481 1078 73 377 51 776 -66 1168 -22 77 -43 121 -89
190 l-60 91 5 -60z"/>
<path d="M4884 4295 c3 -22 14 -94 23 -160 22 -151 25 -624 5 -755 -91 -603
-355 -1176 -750 -1629 -69 -79 -73 -86 -52 -89 78 -12 227 54 375 165 50 37
143 120 209 183 l119 115 -61 5 -60 5 40 65 c181 295 313 672 359 1024 17 131
6 471 -20 609 -38 206 -111 411 -170 477 l-22 25 5 -40z"/>
</g>
</svg>
