<?xml version="1.0" encoding="UTF-8" ?>
<!DOCTYPE svg PUBLIC "-//W3C//DTD SVG 1.1//EN" "http://www.w3.org/Graphics/SVG/1.1/DTD/svg11.dtd">
<svg width="487pt" height="492pt" viewBox="0 0 487 492" version="1.1" xmlns="http://www.w3.org/2000/svg">
<path fill="#ffffff" d=" M 0.00 0.00 L 487.00 0.00 L 487.00 492.00 L 0.00 492.00 L 0.00 0.00 Z" />
<path fill="#443e2e" d=" M 251.12 9.65 C 256.52 9.92 261.84 10.99 267.22 11.44 C 268.67 11.41 269.83 12.25 270.94 13.06 C 269.05 13.56 267.11 13.86 265.26 14.48 C 263.61 18.02 263.98 22.14 263.23 25.93 C 268.03 26.47 272.82 27.07 277.62 27.67 C 277.93 24.18 278.69 20.72 278.66 17.21 C 278.64 14.94 275.67 15.10 274.17 14.22 C 274.19 13.72 274.24 12.72 274.27 12.22 C 280.23 13.15 286.22 13.93 292.24 14.41 C 292.24 14.86 292.23 15.76 292.23 16.21 C 290.60 16.51 288.89 16.56 287.37 17.27 C 286.03 20.40 286.18 23.92 285.62 27.23 C 285.12 32.56 283.97 37.84 284.02 43.21 C 285.73 44.51 287.78 45.24 289.63 46.31 C 283.27 47.82 276.82 45.13 270.38 45.19 C 270.40 44.71 270.42 43.75 270.43 43.27 C 272.15 42.80 274.61 43.45 275.63 41.61 C 276.67 37.96 276.66 34.09 277.27 30.36 C 272.50 29.80 267.73 29.16 262.96 28.65 C 262.56 32.43 261.72 36.19 261.80 40.00 C 263.17 41.87 265.70 42.55 267.25 44.31 C 260.85 44.30 254.57 42.77 248.18 42.42 C 248.20 41.94 248.23 40.98 248.25 40.50 C 250.23 40.10 253.52 40.73 253.74 37.90 C 254.77 29.97 256.04 22.03 256.47 14.05 C 255.08 12.18 252.35 11.78 251.12 9.65 Z" />
<path fill="#443e2e" d=" M 213.21 13.71 C 217.56 11.06 223.08 10.38 227.89 12.09 C 231.47 13.35 234.09 17.23 233.14 21.06 C 232.67 23.79 230.12 25.25 227.99 26.61 C 230.80 27.11 233.96 27.88 235.49 30.57 C 238.16 34.48 236.16 39.96 232.32 42.28 C 227.58 45.26 221.61 46.12 216.15 45.12 C 213.00 44.57 209.47 42.52 209.18 39.02 C 209.09 36.35 212.01 34.49 214.41 35.57 C 217.18 36.37 216.22 39.77 216.56 41.87 C 218.96 42.88 221.75 43.51 224.15 42.09 C 228.73 39.90 228.86 33.02 225.26 29.90 C 223.02 28.18 220.08 28.91 217.49 28.91 C 217.38 28.37 217.18 27.29 217.07 26.75 C 219.10 26.28 221.36 26.32 223.14 25.11 C 227.05 21.82 224.73 13.27 219.05 13.96 C 214.52 14.28 213.10 19.26 212.40 22.97 C 211.84 22.96 210.70 22.92 210.13 22.90 C 209.97 19.42 209.69 15.95 209.46 12.47 C 210.77 12.71 212.02 13.12 213.21 13.71 Z" />
<path fill="#443e2e" d=" M 171.37 20.53 C 176.68 19.04 182.74 19.49 187.33 22.72 C 193.47 26.95 196.28 35.50 193.47 42.47 C 189.08 52.81 174.98 57.76 165.20 52.05 C 158.17 48.14 155.03 38.62 158.27 31.28 C 160.60 25.85 165.76 22.05 171.37 20.53 Z" />
<path fill="#ffffff" d=" M 171.29 23.24 C 173.77 22.36 176.70 22.56 178.84 24.18 C 182.34 26.58 184.05 30.68 185.25 34.60 C 186.26 38.17 187.14 42.08 185.83 45.71 C 184.05 50.89 176.68 53.38 172.37 49.74 C 168.00 46.17 166.26 40.42 165.27 35.07 C 164.25 30.40 166.37 24.65 171.29 23.24 Z" />
<path fill="#443e2e" d=" M 302.00 44.03 C 308.41 36.85 314.78 29.64 321.17 22.44 C 321.80 22.64 323.05 23.03 323.68 23.23 C 324.13 33.25 324.64 43.28 325.15 53.29 C 325.01 56.15 327.70 57.76 329.29 59.70 C 326.33 60.22 323.64 58.72 320.92 57.86 C 317.62 56.64 314.16 55.80 311.09 54.04 C 312.97 53.19 315.02 53.20 317.05 53.16 C 317.44 50.80 317.49 48.39 317.40 46.00 C 313.89 44.85 310.40 43.65 306.92 42.42 C 305.50 44.24 304.18 46.14 303.03 48.14 C 304.25 49.12 305.50 50.08 306.77 51.01 C 306.57 51.47 306.16 52.39 305.96 52.84 C 301.81 51.25 297.53 49.99 293.53 48.04 C 296.45 46.98 299.91 46.61 302.00 44.03 Z" />
<path fill="#ffffff" d=" M 308.92 40.33 C 311.53 37.36 314.14 34.38 316.76 31.41 C 316.97 35.32 316.99 39.23 317.24 43.14 C 314.46 42.20 311.69 41.27 308.92 40.33 Z" />
<path fill="#443e2e" d=" M 113.40 47.71 C 121.61 43.41 129.70 38.88 137.72 34.22 C 139.64 37.22 141.61 40.19 143.08 43.44 C 140.34 42.99 138.42 40.80 135.83 40.00 C 132.23 39.95 129.27 42.43 126.20 43.98 C 130.53 51.81 134.59 59.81 139.41 67.36 C 141.66 66.98 143.95 66.11 146.23 66.87 C 140.66 70.81 134.48 73.90 128.39 76.95 C 128.95 74.69 130.58 73.01 131.96 71.23 C 129.19 65.71 126.02 60.40 123.12 54.96 C 121.84 52.73 120.78 50.31 118.97 48.44 C 117.29 48.56 115.66 49.04 114.03 49.43 L 113.40 47.71 Z" />
<path fill="#443e2e" d=" M 350.60 34.72 C 356.40 37.44 361.54 41.36 367.27 44.25 C 367.01 44.71 366.49 45.62 366.23 46.08 C 364.73 45.53 363.22 44.99 361.72 44.48 C 359.26 47.50 357.34 50.92 355.40 54.29 C 357.12 55.02 358.81 56.00 360.72 56.21 C 365.12 54.84 367.98 50.58 372.51 49.47 C 375.18 48.71 378.31 49.66 380.10 51.79 C 381.90 53.96 379.97 57.94 377.07 57.37 C 374.80 57.08 373.82 54.48 372.22 53.15 C 368.81 55.18 365.64 57.63 361.94 59.14 C 365.56 64.54 363.94 71.12 364.91 77.12 C 365.79 77.29 367.56 77.64 368.44 77.82 C 368.68 78.24 369.18 79.10 369.42 79.53 C 365.75 81.66 360.97 81.10 358.27 77.69 C 354.41 73.25 357.44 67.23 357.69 62.11 C 358.34 59.47 356.02 57.76 354.28 56.29 C 351.91 59.93 349.60 63.63 347.68 67.53 C 348.86 68.72 350.07 69.89 351.30 71.05 C 351.02 71.48 350.45 72.33 350.17 72.76 C 344.92 69.21 339.27 66.30 334.01 62.76 C 336.11 61.75 338.30 62.58 340.40 63.03 C 343.90 58.49 346.47 53.34 349.52 48.51 C 350.96 45.95 352.83 43.57 353.78 40.76 C 353.21 38.59 351.07 37.03 350.60 34.72 Z" />
<path fill="#cbc2a4" d=" M 100.24 69.30 C 105.07 66.98 110.79 71.91 109.70 77.01 C 109.24 82.52 101.73 84.89 97.92 81.08 C 94.00 77.79 95.38 70.86 100.24 69.30 Z" />
<path fill="#e4e9e4" d=" M 192.81 79.14 C 214.99 71.83 238.84 70.27 262.00 72.39 C 273.19 73.64 284.46 75.29 295.09 79.14 C 291.71 79.35 288.34 79.53 284.96 79.55 C 257.30 79.49 229.63 79.51 201.97 79.54 C 198.91 79.50 195.86 79.32 192.81 79.14 Z" />
<path fill="#cbc2a4" d=" M 387.50 74.51 C 391.99 71.39 398.48 75.71 398.18 80.91 C 398.20 86.09 391.71 89.57 387.38 86.76 C 382.81 84.27 383.02 76.98 387.50 74.51 Z" />
<path fill="#e4e9e4" d=" M 149.64 97.91 C 157.78 93.79 165.45 87.13 175.01 87.17 C 218.01 87.31 261.01 87.21 304.02 87.23 C 310.02 87.35 316.42 86.29 322.02 89.05 C 327.59 91.70 332.94 94.81 338.27 97.92 C 275.39 98.05 212.51 98.06 149.64 97.91 Z" />
<path fill="#cbc2a4" d=" M 79.26 88.23 C 84.44 85.71 90.39 91.32 88.73 96.66 C 87.55 102.29 79.25 103.62 76.14 98.92 C 73.18 95.39 75.19 89.85 79.26 88.23 Z" />
<path fill="#cbc2a4" d=" M 407.38 93.50 C 412.32 91.48 418.04 96.73 416.65 101.84 C 415.67 107.05 408.33 109.18 404.69 105.33 C 401.05 101.86 402.69 95.13 407.38 93.50 Z" />
<path fill="#e4e9e4" d=" M 124.40 116.69 C 129.80 112.60 134.44 105.73 141.91 105.94 C 206.61 106.08 271.31 105.97 336.00 105.99 C 340.84 106.12 345.82 105.34 350.56 106.60 C 355.53 109.00 359.31 113.22 363.53 116.70 C 330.82 116.81 298.11 116.79 265.39 116.71 C 263.70 112.98 261.53 108.57 256.88 108.20 C 250.83 106.25 247.33 112.46 243.67 116.01 C 239.76 112.39 235.95 106.95 229.96 107.48 C 224.29 107.84 222.19 114.11 217.69 116.54 C 212.02 117.81 206.40 114.97 200.70 115.75 C 196.82 116.24 192.94 116.88 189.02 116.83 C 167.48 116.63 145.94 116.90 124.40 116.69 Z" />
<path fill="#cbc2a4" d=" M 61.44 109.58 C 66.44 107.74 71.82 112.91 70.43 118.01 C 69.48 123.55 61.47 125.25 58.09 120.93 C 54.67 117.30 56.92 111.01 61.44 109.58 Z" />
<path fill="#cbc2a4" d=" M 424.37 114.43 C 429.76 111.94 435.77 118.36 433.52 123.63 C 431.83 128.48 424.51 129.70 421.37 125.63 C 418.29 122.09 419.95 115.96 424.37 114.43 Z" />
<path fill="#443e2e" d=" M 215.96 128.26 C 221.98 125.10 226.66 119.98 230.95 114.81 C 234.04 117.10 236.84 119.74 239.28 122.72 C 241.00 125.01 244.39 125.76 246.82 124.13 C 250.38 121.58 252.87 117.85 256.24 115.07 C 256.93 117.58 257.82 120.69 255.94 122.91 C 253.61 125.89 251.37 129.02 248.68 131.69 C 244.01 131.55 239.32 131.09 234.65 131.65 C 232.47 129.34 230.34 126.98 227.91 124.94 C 224.05 127.66 221.27 131.75 217.09 134.01 C 212.21 133.29 207.62 131.33 202.90 129.95 C 202.72 127.54 202.62 125.13 202.61 122.72 C 207.25 124.10 211.31 126.95 215.96 128.26 Z" />
<path fill="#e4e9e4" d=" M 115.97 125.03 C 119.52 123.96 123.33 124.52 126.99 124.44 C 149.20 124.57 171.41 124.43 193.62 124.50 C 194.56 128.10 195.56 131.67 196.65 135.23 C 189.63 135.26 182.57 135.69 175.62 134.47 C 169.07 133.17 162.58 135.48 156.01 135.32 C 139.42 135.13 122.82 135.38 106.22 135.17 C 109.33 131.69 111.97 127.58 115.97 125.03 Z" />
<path fill="#e4e9e4" d=" M 264.24 124.46 C 295.84 124.50 327.44 124.50 359.04 124.47 C 363.35 124.59 367.83 123.82 372.01 125.08 C 375.96 127.65 378.60 131.70 381.68 135.18 C 343.11 135.31 304.54 135.26 265.98 135.21 C 264.28 133.20 262.57 131.19 260.86 129.20 C 261.98 127.62 263.11 126.04 264.24 124.46 Z" />
<path fill="#cbc2a4" d=" M 45.44 133.65 C 50.43 131.56 56.23 136.64 54.85 141.86 C 54.05 147.36 46.33 149.15 42.75 145.21 C 39.09 141.82 40.99 135.31 45.44 133.65 Z" />
<path fill="#cbc2a4" d=" M 438.35 134.43 C 443.83 132.82 448.57 139.49 446.23 144.36 C 444.35 148.77 437.88 149.82 434.63 146.32 C 430.76 142.63 433.06 135.26 438.35 134.43 Z" />
<path fill="#443e2e" d=" M 226.93 140.24 C 235.95 138.94 244.97 137.52 254.01 136.37 C 255.74 136.04 258.58 136.48 258.37 138.80 C 257.25 141.65 254.36 143.16 251.48 143.61 C 244.73 144.80 237.86 143.95 231.07 144.53 C 223.16 141.74 215.35 146.08 207.48 146.81 C 206.26 144.80 205.85 142.54 206.09 140.23 C 213.04 139.83 220.01 141.34 226.93 140.24 Z" />
<path fill="#443e2e" d=" M 167.72 142.68 C 170.16 140.76 174.43 141.39 175.51 144.56 C 176.18 146.78 176.74 149.95 174.55 151.51 C 171.44 154.07 169.24 157.46 166.69 160.52 C 164.07 163.60 162.57 167.60 159.18 170.00 C 156.76 168.43 154.53 166.55 151.91 165.32 C 147.33 167.78 145.61 173.35 141.03 175.72 C 138.67 175.87 139.10 172.90 138.29 171.45 C 141.34 168.05 145.48 165.81 148.27 162.15 C 150.64 159.44 150.24 155.09 153.39 152.94 C 156.23 152.97 158.81 156.12 161.61 154.50 C 165.62 151.82 164.37 145.86 167.72 142.68 Z" />
<path fill="#e4e9e4" d=" M 99.50 143.32 C 119.09 143.19 138.67 143.16 158.25 143.33 C 157.87 143.96 157.49 144.59 157.12 145.23 C 154.49 145.34 151.71 145.00 149.23 146.05 C 146.11 147.79 144.41 151.10 142.44 153.93 C 125.66 154.07 108.87 154.01 92.08 153.96 C 94.48 150.36 96.96 146.81 99.50 143.32 Z" />
<path fill="#e4e9e4" d=" M 183.60 143.22 C 187.89 143.21 192.18 143.23 196.47 143.26 C 197.39 145.24 198.31 147.21 199.25 149.18 C 197.48 150.71 195.85 152.47 193.74 153.54 C 190.31 154.45 186.71 154.02 183.20 154.04 C 183.40 150.43 183.54 146.83 183.60 143.22 Z" />
<path fill="#e4e9e4" d=" M 264.62 143.34 C 305.88 143.16 347.14 143.18 388.40 143.33 C 390.95 146.80 393.41 150.33 395.77 153.93 C 353.20 154.06 310.62 154.01 268.05 153.96 C 266.24 151.36 264.42 148.77 262.60 146.18 C 263.27 145.23 263.95 144.29 264.62 143.34 Z" />
<path fill="#443e2e" d=" M 250.28 152.24 C 252.74 151.16 255.89 151.55 258.07 153.08 C 260.30 155.87 262.01 159.07 263.69 162.21 C 263.90 166.73 263.21 171.40 261.27 175.51 C 259.64 178.84 256.01 181.26 252.23 180.74 C 250.43 179.86 249.47 177.85 249.39 175.92 C 249.09 171.15 251.38 166.65 251.16 161.90 C 250.63 159.22 247.64 158.41 245.74 156.94 C 246.71 154.95 248.48 153.46 250.28 152.24 Z" />
<path fill="#443e2e" d=" M 228.82 155.78 C 230.99 152.58 235.29 152.31 238.75 153.08 C 234.32 157.26 230.46 162.90 231.04 169.28 C 231.45 172.51 232.63 176.75 236.41 177.31 C 239.45 178.30 243.72 177.25 245.57 180.51 C 246.49 182.74 244.96 184.98 243.72 186.73 C 241.08 190.12 238.25 193.37 235.25 196.45 C 231.91 194.63 228.10 192.55 226.80 188.73 C 226.65 186.56 226.96 184.39 226.78 182.22 C 226.67 176.69 223.50 171.45 224.96 165.86 C 225.96 162.41 227.04 158.91 228.82 155.78 Z" />
<path fill="#443e2e" d=" M 200.37 160.99 C 200.67 157.83 203.62 155.33 206.74 155.24 C 210.85 154.88 216.27 155.45 218.37 159.55 C 219.40 163.87 219.10 168.45 218.67 172.85 C 217.63 176.57 214.31 179.46 210.77 180.78 C 207.33 180.84 202.74 178.12 203.20 174.22 C 205.01 170.49 209.39 169.19 212.54 166.86 C 211.38 166.34 210.24 165.78 209.04 165.38 C 207.38 166.21 205.97 167.45 204.26 168.16 C 202.22 166.31 200.59 163.79 200.37 160.99 Z" />
<path fill="#cbc2a4" d=" M 448.40 157.52 C 452.72 155.06 458.44 158.28 458.59 163.23 C 459.59 168.82 452.67 172.75 448.05 169.95 C 443.17 167.60 443.50 159.66 448.40 157.52 Z" />
<path fill="#cbc2a4" d=" M 33.25 159.26 C 38.35 157.46 43.91 162.75 42.29 167.94 C 41.15 173.23 33.60 174.75 30.14 170.83 C 26.54 167.37 28.62 160.63 33.25 159.26 Z" />
<path fill="#e4e9e4" d=" M 87.21 161.84 C 103.42 161.59 119.64 161.88 135.85 161.69 C 132.92 164.72 130.91 168.44 129.66 172.45 C 113.65 172.57 97.63 172.55 81.62 172.45 C 83.41 168.88 85.28 165.34 87.21 161.84 Z" />
<path fill="#e4e9e4" d=" M 174.24 162.34 C 179.98 161.63 185.77 161.53 191.54 161.86 C 192.96 165.43 194.52 168.95 196.18 172.42 C 190.36 172.66 184.51 172.63 178.72 171.93 C 177.28 168.71 175.78 165.51 174.24 162.34 Z" />
<path fill="#e4e9e4" d=" M 271.52 161.88 C 310.67 161.55 349.82 161.90 388.97 161.71 C 392.80 161.75 396.75 161.30 400.49 162.32 C 403.13 165.23 404.52 169.01 406.32 172.46 C 361.06 172.56 315.81 172.52 270.55 172.49 C 270.88 168.95 271.20 165.42 271.52 161.88 Z" />
<path fill="#443e2e" d=" M 240.36 164.11 C 242.26 163.30 244.69 163.43 246.14 165.05 C 247.00 167.81 245.14 171.37 242.04 171.38 C 238.42 171.52 235.96 164.96 240.36 164.11 Z" />
<path fill="#443e2e" d=" M 165.97 168.94 C 166.97 169.00 167.97 169.06 168.98 169.13 C 171.29 172.21 174.32 174.60 177.19 177.12 C 175.63 178.72 174.18 180.43 172.80 182.19 C 171.86 181.16 170.91 180.13 169.96 179.12 C 168.73 181.86 167.30 184.72 167.36 187.80 C 168.76 192.23 172.79 195.97 171.96 200.97 C 171.01 205.36 168.97 209.80 165.53 212.79 C 163.67 214.77 161.07 212.64 159.68 211.15 C 156.27 205.22 156.82 197.95 157.88 191.46 C 160.03 185.09 163.52 179.24 165.80 172.92 C 165.90 171.59 165.96 170.27 165.97 168.94 Z" />
<path fill="#e4e9e4" d=" M 78.01 180.24 C 94.33 180.20 110.66 180.31 126.98 180.16 C 130.32 180.06 133.47 181.19 136.51 182.44 C 142.25 185.19 147.77 180.21 153.49 179.63 C 152.22 183.43 150.85 187.19 149.48 190.95 C 124.22 191.04 98.96 191.02 73.70 190.96 C 75.06 187.35 76.50 183.78 78.01 180.24 Z" />
<path fill="#443e2e" d=" M 177.40 179.97 C 180.96 178.67 183.43 182.90 184.39 185.76 C 185.51 187.94 184.44 191.04 181.91 191.56 C 176.02 192.67 172.49 183.09 177.40 179.97 Z" />
<path fill="#e4e9e4" d=" M 190.11 180.22 C 191.95 180.24 193.79 180.25 195.63 180.27 C 197.69 182.32 199.76 184.37 201.84 186.40 C 201.51 187.23 201.18 188.07 200.85 188.90 C 197.76 186.82 194.56 184.90 191.27 183.16 C 190.88 182.18 190.49 181.20 190.11 180.22 Z" />
<path fill="#e4e9e4" d=" M 267.73 180.37 C 315.12 180.06 362.52 180.32 409.91 180.24 C 411.42 183.78 412.85 187.35 414.20 190.95 C 404.12 190.99 394.03 191.06 383.95 191.04 C 379.63 191.16 376.17 187.99 372.01 187.55 C 366.88 188.10 362.28 191.03 357.05 191.01 C 350.38 191.10 343.70 191.02 337.04 191.04 C 330.12 191.15 323.86 187.46 316.97 187.41 C 311.49 187.30 305.91 187.74 300.74 189.68 C 294.41 192.05 287.55 190.75 280.96 190.99 C 270.26 190.80 259.53 191.52 248.86 190.49 C 252.33 189.28 255.92 188.46 259.39 187.28 C 262.97 186.14 265.28 183.00 267.73 180.37 Z" />
<path fill="#cbc2a4" d=" M 457.38 184.37 C 461.67 181.75 467.80 184.94 467.75 190.05 C 468.65 195.53 462.00 199.46 457.41 196.75 C 452.46 194.57 452.57 186.64 457.38 184.37 Z" />
<path fill="#cbc2a4" d=" M 24.29 186.24 C 29.02 184.25 34.72 188.76 33.83 193.82 C 33.38 198.79 27.09 201.65 22.98 198.87 C 17.97 196.26 19.10 187.95 24.29 186.24 Z" />
<path fill="#443e2e" d=" M 208.99 191.00 C 212.35 188.83 216.95 189.62 219.88 192.20 C 222.78 194.64 225.72 197.32 227.46 200.74 C 226.25 205.10 227.84 209.21 229.57 213.15 C 229.01 215.95 227.93 218.61 227.13 221.35 C 222.06 219.96 218.82 215.45 216.84 210.84 C 218.26 208.54 220.09 206.48 221.23 204.01 C 220.77 202.83 220.16 201.72 219.58 200.60 C 218.64 201.40 217.71 202.20 216.78 203.00 C 213.31 202.78 209.11 202.04 207.51 198.49 C 206.71 196.02 207.09 192.89 208.99 191.00 Z" />
<path fill="#443e2e" d=" M 186.26 192.40 C 188.27 191.79 190.69 191.12 192.54 192.53 C 195.95 194.82 196.20 199.51 195.16 203.12 C 191.66 204.94 187.21 203.93 184.38 201.31 C 182.00 198.70 183.14 193.91 186.26 192.40 Z" />
<path fill="#443e2e" d=" M 314.05 195.10 C 316.20 195.09 318.36 195.18 320.50 195.48 C 318.59 203.64 315.14 211.35 313.39 219.56 C 311.95 222.66 310.54 218.62 310.67 216.98 C 310.61 209.56 311.85 202.17 314.05 195.10 Z" />
<path fill="#443e2e" d=" M 363.22 198.57 C 366.61 197.86 369.51 195.73 372.92 195.08 C 374.31 196.43 374.52 198.92 373.19 200.38 C 370.00 204.56 365.27 207.16 361.01 210.12 C 356.87 212.55 353.49 216.31 348.79 217.71 C 347.66 213.20 347.73 208.07 349.83 203.86 C 352.67 199.11 358.58 199.84 363.22 198.57 Z" />
<path fill="#443e2e" d=" M 297.45 199.89 C 300.60 198.69 303.61 197.19 306.72 195.92 C 308.16 197.49 309.70 199.53 309.19 201.81 C 308.53 205.89 306.94 209.76 305.60 213.64 C 303.94 214.42 302.16 214.90 300.55 215.78 C 302.27 216.99 304.23 217.83 305.94 219.06 C 306.05 221.67 306.18 224.53 304.92 226.92 C 303.89 228.86 301.40 229.16 299.47 228.65 C 296.82 226.74 296.12 223.21 296.65 220.14 C 297.78 213.48 299.41 206.57 297.45 199.89 Z" />
<path fill="#443e2e" d=" M 317.66 216.00 C 318.52 209.09 322.36 202.98 324.42 196.39 C 326.99 197.77 329.75 198.70 332.67 198.96 C 332.66 202.09 332.42 205.62 329.89 207.82 C 326.18 211.26 323.62 215.64 320.65 219.69 C 319.27 218.77 317.15 218.10 317.66 216.00 Z" />
<path fill="#e4e9e4" d=" M 71.01 199.02 C 96.84 198.98 122.67 198.99 148.49 199.02 C 148.94 202.60 149.40 206.18 149.88 209.76 C 122.62 209.74 95.36 209.81 68.09 209.73 C 69.03 206.15 70.00 202.58 71.01 199.02 Z" />
<path fill="#443e2e" d=" M 233.23 204.53 C 237.18 202.04 241.37 199.69 246.11 199.29 C 249.12 198.57 251.67 200.65 254.32 201.69 C 257.55 203.25 261.14 203.69 264.55 204.70 C 262.07 208.76 258.28 212.08 254.19 214.42 C 251.46 212.98 249.27 210.74 246.69 209.06 C 246.02 209.96 245.42 210.91 244.91 211.91 C 244.24 218.60 248.20 225.00 246.46 231.67 C 244.53 232.97 242.41 234.80 239.91 234.21 C 237.22 233.05 235.33 230.68 233.22 228.75 C 233.23 220.67 232.02 212.57 233.23 204.53 Z" />
<path fill="#e4e9e4" d=" M 270.92 199.00 C 274.85 198.98 278.79 198.98 282.72 198.99 C 281.91 201.09 281.09 203.18 280.29 205.28 C 277.15 203.22 274.03 201.12 270.92 199.00 Z" />
<path fill="#e4e9e4" d=" M 382.31 199.02 C 393.84 198.97 405.37 198.99 416.90 199.01 C 417.91 202.58 418.90 206.15 419.85 209.74 C 407.42 209.77 395.00 209.82 382.57 209.71 C 381.73 208.07 380.89 206.43 380.05 204.79 C 380.80 202.87 381.55 200.95 382.31 199.02 Z" />
<path fill="#443e2e" d=" M 335.34 199.24 C 337.01 199.78 338.69 200.29 340.38 200.80 C 338.71 203.53 336.87 206.55 333.35 206.95 C 333.61 204.29 334.62 201.79 335.34 199.24 Z" />
<path fill="#443e2e" d=" M 288.84 207.02 C 288.93 204.66 290.67 202.96 292.11 201.30 C 293.36 203.49 294.27 205.88 294.50 208.40 C 294.99 215.63 294.32 222.87 293.39 230.04 C 293.06 233.67 290.40 236.48 288.05 239.03 C 286.37 240.90 282.76 239.40 282.66 236.92 C 283.02 233.43 287.09 232.02 287.80 228.65 C 288.93 225.49 286.21 222.55 286.89 219.38 C 287.39 215.23 288.40 211.17 288.84 207.02 Z" />
<path fill="#443e2e" d=" M 342.34 202.07 C 343.77 201.49 345.33 201.75 346.82 201.78 C 346.09 203.86 345.17 205.90 344.74 208.09 C 343.97 211.33 345.57 214.54 345.22 217.80 C 344.43 219.52 342.33 220.13 340.93 221.30 C 336.89 220.69 332.46 219.58 329.81 216.20 C 328.45 214.45 328.81 211.88 330.37 210.37 C 332.08 208.07 335.27 208.80 337.61 207.72 C 339.53 206.14 340.54 203.77 342.34 202.07 Z" />
<path fill="#443e2e" d=" M 262.97 211.96 C 264.57 210.05 266.14 207.57 268.78 207.10 C 271.51 208.71 274.08 210.59 276.69 212.37 C 278.56 218.10 280.94 223.67 283.36 229.20 C 281.21 230.72 279.14 233.32 276.24 232.97 C 272.22 230.35 271.33 225.13 268.24 221.66 C 266.87 218.80 263.52 218.81 261.01 217.56 C 260.04 215.44 261.90 213.60 262.97 211.96 Z" />
<path fill="#443e2e" d=" M 198.71 207.29 C 200.91 207.76 202.97 208.75 204.46 210.48 C 207.96 214.33 212.42 217.14 215.89 221.01 C 223.63 231.80 234.09 240.21 244.04 248.87 C 254.90 259.34 265.17 270.40 276.13 280.76 C 287.15 290.01 298.56 299.00 307.86 310.06 C 311.95 314.93 315.52 320.65 321.33 323.66 C 324.12 325.21 326.93 326.75 329.79 328.20 C 332.41 329.58 336.04 329.20 337.84 331.95 C 341.28 336.74 346.34 341.64 345.54 348.06 C 345.20 350.65 342.08 350.69 340.06 350.58 C 337.51 350.12 334.45 349.59 332.96 347.22 C 328.14 336.26 317.51 329.73 309.06 321.84 C 299.58 314.80 291.69 305.96 283.28 297.73 C 270.37 284.96 257.78 271.84 244.49 259.47 C 230.14 244.13 214.72 229.82 200.86 214.02 C 199.00 212.25 198.39 209.79 198.71 207.29 Z" />
<path fill="#443e2e" d=" M 364.02 214.04 C 367.11 212.50 370.10 210.30 373.62 209.99 C 374.13 210.47 375.16 211.44 375.68 211.92 C 373.90 213.57 371.89 214.91 369.75 216.04 C 370.09 217.41 370.36 218.82 371.02 220.09 C 375.40 228.01 382.50 234.79 384.22 243.96 C 384.96 246.43 382.09 247.50 380.26 248.06 C 375.37 249.32 370.23 249.92 365.18 249.48 C 362.46 248.08 361.22 244.91 358.90 242.95 C 354.93 239.51 359.13 230.00 364.61 233.34 C 367.41 236.89 362.96 244.23 368.63 245.51 C 371.63 244.29 373.59 241.60 375.40 239.04 C 372.85 235.08 368.87 232.48 365.45 229.37 C 362.86 227.10 361.67 223.78 360.12 220.81 C 358.01 224.42 355.57 227.83 353.33 231.36 C 352.22 233.38 350.68 235.76 351.63 238.14 C 353.19 242.01 355.44 245.66 358.38 248.63 C 360.79 250.60 363.38 252.33 365.73 254.39 C 371.79 252.18 378.15 250.31 384.68 250.54 C 384.24 253.88 384.63 257.64 382.53 260.50 C 381.41 262.20 380.12 263.80 378.88 265.42 C 376.46 263.63 374.40 261.45 372.49 259.15 C 370.76 262.24 369.15 265.42 366.95 268.21 C 363.39 265.55 363.73 260.40 360.11 257.83 C 353.74 261.13 348.28 266.06 341.51 268.61 C 335.47 270.97 328.87 269.27 322.76 268.06 C 308.63 264.32 295.10 257.50 284.33 247.52 C 285.45 246.67 286.52 245.72 287.79 245.09 C 293.33 247.32 297.63 251.80 303.16 254.06 C 307.72 255.73 312.88 255.26 317.20 257.67 C 323.20 260.90 329.95 263.65 336.87 263.13 C 343.20 261.35 349.11 257.96 353.99 253.57 C 350.86 247.58 343.87 245.28 340.08 239.87 C 338.08 237.16 338.99 233.40 341.14 231.07 C 347.39 223.78 355.78 218.77 364.02 214.04 Z" />
<path fill="#443e2e" d=" M 164.14 218.22 C 165.84 213.47 170.69 211.04 175.43 210.42 C 177.44 213.06 178.80 216.56 182.06 217.94 C 186.97 220.23 192.58 219.08 197.69 220.40 C 199.38 221.41 201.63 223.29 200.59 225.50 C 199.29 227.75 197.20 230.65 194.26 230.19 C 187.72 229.33 181.30 227.67 174.97 225.86 C 172.26 225.17 170.37 222.98 168.22 221.35 C 167.73 221.82 166.73 222.78 166.24 223.26 C 165.33 221.69 163.36 220.24 164.14 218.22 Z" />
<path fill="#cbc2a4" d=" M 463.27 212.23 C 467.54 209.79 473.63 212.94 473.52 218.03 C 474.32 223.71 467.15 227.71 462.62 224.39 C 458.10 221.75 458.55 214.40 463.27 212.23 Z" />
<path fill="#cbc2a4" d=" M 18.31 214.36 C 22.78 212.53 28.38 216.01 28.17 220.98 C 28.43 226.26 22.04 229.76 17.57 227.19 C 12.39 224.82 13.17 216.30 18.31 214.36 Z" />
<path fill="#e4e9e4" d=" M 66.28 217.63 C 95.86 217.37 125.46 217.44 155.04 217.59 C 155.74 220.43 156.44 223.27 157.15 226.10 C 154.25 227.31 151.23 228.41 148.04 228.33 C 120.25 228.12 92.46 228.35 64.66 228.20 C 65.19 224.68 65.73 221.15 66.28 217.63 Z" />
<path fill="#e4e9e4" d=" M 379.14 217.78 C 393.29 217.22 407.47 217.48 421.63 217.61 C 422.17 221.14 422.71 224.67 423.24 228.20 C 410.75 228.31 398.27 228.22 385.79 228.26 C 383.37 224.90 381.14 221.41 379.14 217.78 Z" />
<path fill="#443e2e" d=" M 308.63 229.57 C 311.90 225.16 317.67 223.63 322.90 223.27 C 327.02 223.11 331.12 222.45 335.24 222.55 C 336.93 222.57 337.51 224.43 338.50 225.48 C 331.67 226.42 324.95 229.23 320.46 234.64 C 318.68 238.81 319.95 243.55 318.61 247.83 C 318.00 249.97 315.76 251.07 313.75 251.51 C 307.94 252.33 301.21 249.70 298.88 243.99 C 301.04 241.74 303.81 240.17 305.85 237.80 C 307.29 235.25 306.76 231.95 308.63 229.57 Z" />
<path fill="#443e2e" d=" M 174.57 231.79 C 182.86 230.33 191.12 232.97 199.37 233.50 C 199.49 233.79 199.75 234.39 199.88 234.69 C 198.31 236.58 196.46 238.22 195.06 240.25 C 193.73 242.37 190.93 242.39 189.04 243.77 C 187.83 245.38 186.88 247.16 185.74 248.81 C 182.66 253.10 184.56 259.54 180.34 263.20 C 178.61 265.66 174.63 266.79 172.66 263.95 C 172.95 259.73 174.40 255.70 174.83 251.50 C 175.19 246.08 170.81 241.56 171.67 236.10 C 171.60 234.19 172.49 232.11 174.57 231.79 Z" />
<path fill="#443e2e" d=" M 155.58 237.50 C 159.35 235.74 163.37 234.57 167.44 233.73 C 167.72 237.36 166.94 241.11 168.21 244.63 C 169.56 248.84 169.79 253.30 169.68 257.69 C 168.98 259.23 167.07 260.71 165.38 259.69 C 162.28 257.98 158.94 256.45 155.34 256.37 C 152.39 257.58 149.75 259.48 146.64 260.33 C 146.07 256.21 144.78 251.69 146.46 247.70 C 149.19 244.08 151.05 239.24 155.58 237.50 Z" />
<path fill="#443e2e" d=" M 196.29 245.80 C 199.27 241.58 201.65 235.69 207.12 234.35 C 209.25 236.47 211.17 238.99 214.08 240.07 C 217.48 241.74 221.80 242.75 223.58 246.45 C 225.15 249.48 224.47 253.04 222.97 255.95 C 221.02 259.73 219.29 263.68 216.73 267.11 C 215.07 265.46 213.24 263.79 212.52 261.49 C 210.92 256.96 213.14 252.15 211.67 247.59 C 208.21 249.95 205.51 253.37 204.31 257.41 C 203.27 261.19 200.91 264.52 197.71 266.78 C 194.26 268.67 190.17 268.29 186.59 266.98 C 186.38 266.38 185.96 265.17 185.75 264.56 C 186.87 260.29 184.84 254.88 189.13 251.92 C 191.83 251.37 194.58 252.21 197.29 252.31 C 197.78 250.05 197.21 247.86 196.29 245.80 Z" />
<path fill="#443e2e" d=" M 247.51 236.14 C 254.63 234.15 262.37 233.78 269.53 235.73 C 273.78 236.70 274.32 242.31 272.55 245.60 C 271.89 247.90 269.69 251.04 272.14 252.98 C 275.69 254.54 277.87 248.39 281.38 250.62 C 284.09 253.19 287.24 257.16 285.01 261.02 C 282.97 266.71 275.85 269.10 270.53 266.68 C 265.55 263.13 263.69 256.87 259.30 252.75 C 255.45 249.13 252.24 244.93 248.78 240.97 C 247.65 239.63 247.83 237.75 247.51 236.14 Z" />
<path fill="#e4e9e4" d=" M 63.79 236.27 C 85.75 236.24 107.71 236.15 129.67 236.32 C 123.74 238.71 117.60 240.76 112.17 244.23 C 109.45 246.03 106.32 247.25 103.00 247.08 C 89.70 246.93 76.39 247.08 63.09 246.95 C 63.31 243.38 63.54 239.83 63.79 236.27 Z" />
<path fill="#e4e9e4" d=" M 390.31 236.20 C 401.59 236.28 412.86 236.18 424.13 236.27 C 424.38 239.83 424.62 243.39 424.86 246.95 C 414.03 247.05 403.19 246.99 392.36 247.01 C 391.72 243.39 391.05 239.79 390.31 236.20 Z" />
<path fill="#cbc2a4" d=" M 465.40 239.53 C 469.61 236.93 476.16 239.76 476.04 245.03 C 476.78 250.26 470.84 254.38 466.15 252.06 C 461.00 250.13 460.53 242.05 465.40 239.53 Z" />
<path fill="#443e2e" d=" M 118.08 250.09 C 125.44 244.42 134.69 242.15 143.53 239.93 C 142.38 243.61 141.67 247.48 139.97 250.96 C 138.30 252.01 136.34 252.51 134.72 253.64 C 133.11 255.12 132.12 257.14 130.62 258.71 C 129.24 259.63 127.53 259.87 126.04 260.57 C 124.82 266.07 126.76 272.04 124.18 277.29 C 121.94 281.83 118.12 285.35 114.29 288.57 C 114.25 285.11 114.12 281.64 114.23 278.18 C 115.36 274.72 117.30 271.59 118.34 268.10 C 115.46 270.63 113.49 274.00 110.53 276.46 C 110.08 269.55 114.61 263.87 118.25 258.48 C 116.00 260.02 113.85 261.70 111.61 263.25 C 110.79 258.04 114.07 253.11 118.08 250.09 Z" />
<path fill="#cbc2a4" d=" M 15.36 243.33 C 19.65 240.83 25.81 244.01 25.99 249.04 C 26.56 254.14 20.77 258.11 16.13 256.12 C 10.71 254.40 10.56 245.86 15.36 243.33 Z" />
<path fill="#443e2e" d=" M 225.09 266.93 C 226.13 262.06 226.12 256.80 228.87 252.46 C 233.27 255.65 236.42 260.17 240.65 263.56 C 242.68 264.87 241.33 268.66 238.96 268.52 C 234.31 268.53 229.57 268.30 225.09 266.93 Z" />
<path fill="#e4e9e4" d=" M 63.03 254.79 C 76.37 254.73 89.71 254.71 103.05 254.80 C 103.42 258.43 104.10 262.03 105.09 265.56 C 91.25 265.46 77.40 265.56 63.56 265.50 C 63.37 261.93 63.20 258.36 63.03 254.79 Z" />
<path fill="#e4e9e4" d=" M 392.50 254.81 C 403.28 254.70 414.06 254.72 424.85 254.80 C 424.71 258.37 424.57 261.93 424.42 265.49 C 412.64 265.55 400.85 265.51 389.07 265.51 C 390.32 261.98 391.46 258.41 392.50 254.81 Z" />
<path fill="#443e2e" d=" M 290.26 261.43 C 291.17 259.73 293.04 261.38 294.28 261.68 C 301.32 265.29 307.01 271.05 312.21 276.91 C 313.26 278.43 315.45 280.21 314.28 282.23 C 312.34 286.16 309.43 289.59 306.31 292.64 C 304.27 294.82 301.33 292.90 299.26 291.80 C 292.30 287.56 285.75 282.65 279.51 277.41 C 278.49 276.32 276.55 275.30 277.31 273.52 C 280.55 270.94 284.58 273.31 288.03 274.04 C 290.29 272.00 290.44 268.71 289.90 265.92 C 290.00 264.46 288.60 262.42 290.26 261.43 Z" />
<path fill="#443e2e" d=" M 143.87 266.88 C 145.12 263.11 149.84 263.61 153.01 263.34 C 159.53 262.62 166.04 264.50 171.87 267.25 C 172.52 269.79 171.53 272.70 169.05 273.83 C 163.20 276.49 156.32 275.68 150.55 278.60 C 146.65 282.13 143.61 286.64 141.42 291.41 C 139.25 297.58 142.80 303.89 141.93 310.18 C 141.95 318.06 135.10 323.43 128.90 327.01 C 128.39 322.35 126.78 317.95 123.30 314.68 C 126.17 312.18 129.82 309.93 131.05 306.13 C 130.31 303.23 127.69 301.47 125.72 299.43 C 127.86 296.37 131.23 294.42 133.20 291.23 C 138.09 283.75 140.68 275.14 143.87 266.88 Z" />
<path fill="#cbc2a4" d=" M 465.29 268.42 C 470.00 266.49 475.95 270.73 474.69 275.96 C 474.43 281.37 467.38 283.96 463.39 280.57 C 459.06 277.52 460.24 270.00 465.29 268.42 Z" />
<path fill="#cbc2a4" d=" M 18.41 271.48 C 23.44 269.84 28.80 275.03 27.22 280.09 C 26.18 284.65 20.43 286.70 16.52 284.38 C 11.58 281.57 12.69 272.68 18.41 271.48 Z" />
<path fill="#443e2e" d=" M 190.44 272.43 C 194.69 270.98 199.76 272.19 203.02 275.16 C 204.78 279.82 202.37 285.63 198.00 287.98 C 190.67 291.82 182.45 294.15 174.15 294.21 C 171.33 294.09 168.04 293.54 165.85 295.82 C 162.92 298.37 164.14 302.56 164.72 305.86 C 165.84 313.23 168.01 320.53 167.57 328.05 C 167.19 335.76 164.53 343.08 162.27 350.39 C 160.95 354.99 162.02 359.83 161.46 364.52 C 159.01 364.74 156.73 363.76 155.55 361.53 C 152.47 356.70 150.11 350.85 151.23 345.04 C 152.42 342.20 154.85 340.13 156.14 337.34 C 153.51 336.94 150.81 337.47 148.20 336.92 C 145.99 335.39 145.68 331.76 147.95 330.15 C 151.16 327.64 155.39 326.89 158.51 324.19 C 159.61 317.69 155.64 310.91 158.75 304.77 C 157.96 301.16 156.52 297.68 156.18 293.98 C 156.30 291.45 158.66 289.85 160.71 288.82 C 166.28 286.25 172.11 284.27 177.69 281.72 C 182.60 279.51 185.13 273.92 190.44 272.43 Z" />
<path fill="#443e2e" d=" M 218.31 273.34 C 221.74 272.52 225.32 273.16 228.77 273.55 C 230.95 277.52 232.10 282.93 236.96 284.49 C 239.06 281.47 240.67 278.16 241.78 274.65 C 244.69 274.42 247.53 273.71 250.12 272.33 C 252.63 277.70 254.87 283.49 259.57 287.39 C 262.10 289.49 265.28 290.50 268.36 291.50 C 266.72 293.80 265.41 296.35 263.47 298.41 C 260.01 299.78 256.06 299.29 252.42 298.90 C 251.31 297.03 250.09 295.19 249.42 293.11 C 249.38 291.30 250.27 289.65 250.56 287.90 C 248.93 285.92 246.06 284.15 243.52 285.55 C 240.19 287.09 238.83 290.78 236.72 293.54 C 235.15 295.63 233.17 298.53 230.13 297.75 C 225.94 294.73 230.44 286.86 224.76 285.02 C 221.01 285.46 217.39 287.89 213.53 286.71 C 211.46 285.65 209.46 283.64 210.08 281.10 C 211.14 277.24 214.84 274.85 218.31 273.34 Z" />
<path fill="#e4e9e4" d=" M 336.66 277.53 C 342.33 277.07 347.21 273.37 352.97 273.33 C 358.04 272.90 362.97 274.35 367.67 276.09 C 370.57 274.73 373.59 273.35 376.88 273.51 C 392.47 273.58 408.07 273.35 423.67 273.56 C 423.15 277.11 422.62 280.66 422.07 284.22 C 403.72 284.33 385.36 284.14 367.00 284.34 C 362.02 284.65 357.65 281.97 352.90 281.10 C 347.81 281.28 343.34 285.54 338.06 284.00 C 334.15 283.51 330.97 281.02 328.87 277.79 C 331.46 277.72 334.07 277.76 336.66 277.53 Z" />
<path fill="#e4e9e4" d=" M 64.24 273.52 C 77.39 273.46 90.54 273.46 103.68 273.52 C 104.45 277.08 105.22 280.64 105.98 284.21 C 92.60 284.28 79.22 284.28 65.84 284.21 C 65.30 280.65 64.76 277.08 64.24 273.52 Z" />
<path fill="#443e2e" d=" M 319.05 293.05 C 320.55 290.75 322.10 288.39 324.60 287.06 C 330.99 289.45 337.10 293.04 343.93 294.00 C 346.93 292.84 349.23 290.42 352.16 289.11 C 353.35 288.36 354.34 288.59 355.10 289.81 C 359.25 295.03 359.00 302.52 363.57 307.50 C 365.66 310.34 369.30 313.68 367.59 317.51 C 365.29 319.99 362.88 322.35 361.98 325.72 C 358.51 327.94 357.99 332.58 354.59 334.77 C 352.69 336.29 350.41 334.31 349.66 332.50 C 348.03 329.41 350.10 326.16 351.23 323.28 C 352.95 320.24 351.97 316.68 351.68 313.42 C 349.60 313.31 347.51 313.22 345.44 313.08 C 345.89 309.21 348.37 306.12 350.05 302.75 C 347.18 299.60 342.86 300.45 339.10 300.73 C 335.53 301.22 333.57 305.14 329.94 305.42 C 325.44 305.92 320.86 305.30 316.47 304.32 C 313.72 303.68 312.85 300.86 312.38 298.43 C 314.78 296.89 317.52 295.58 319.05 293.05 Z" />
<path fill="#e4e9e4" d=" M 67.36 292.03 C 80.58 292.00 93.81 291.92 107.03 292.06 C 107.99 293.72 108.77 295.53 110.10 296.94 C 112.83 297.90 115.77 297.27 118.58 297.15 C 118.56 299.03 118.54 300.90 118.52 302.78 C 102.39 302.74 86.27 302.79 70.14 302.76 C 69.19 299.19 68.26 295.61 67.36 292.03 Z" />
<path fill="#e4e9e4" d=" M 364.85 292.04 C 383.42 291.98 401.98 291.96 420.55 292.05 C 419.65 295.61 418.74 299.17 417.80 302.73 C 401.57 302.78 385.33 302.81 369.10 302.71 C 367.57 299.19 366.16 295.63 364.85 292.04 Z" />
<path fill="#e4e9e4" d=" M 191.81 297.81 C 197.03 296.58 201.81 293.96 207.06 292.91 C 210.84 292.78 214.43 294.56 217.61 296.46 C 219.86 297.71 220.34 300.42 221.26 302.60 C 211.54 302.92 201.80 302.71 192.07 302.76 C 184.71 302.68 177.32 303.14 169.99 302.27 C 177.11 300.01 184.69 300.04 191.81 297.81 Z" />
<path fill="#443e2e" d=" M 264.10 308.05 C 266.53 303.69 268.79 299.12 272.09 295.33 C 274.77 298.91 273.04 303.16 272.77 307.16 C 276.79 308.08 280.86 309.18 284.17 311.76 C 289.36 315.87 296.23 318.49 299.17 324.85 C 301.09 329.01 304.83 331.85 307.29 335.63 C 310.05 340.11 314.78 342.91 317.67 347.31 C 318.98 348.96 319.67 351.44 321.97 351.97 C 325.40 352.80 328.07 356.26 327.94 359.75 C 325.85 363.00 322.89 365.57 320.17 368.28 C 318.82 369.99 316.62 370.51 314.64 369.55 C 312.87 366.25 313.91 362.38 313.11 358.85 C 312.53 356.86 313.14 354.05 311.01 352.91 C 308.20 353.23 307.61 356.61 306.16 358.51 C 304.35 357.34 301.88 356.33 301.62 353.89 C 301.06 350.24 302.19 346.58 301.95 342.93 C 299.89 340.39 297.02 338.58 295.47 335.62 C 292.12 330.10 286.17 327.04 280.34 324.80 C 275.92 323.19 270.98 323.40 266.75 321.29 C 262.65 318.38 262.77 312.38 264.10 308.05 Z" />
<path fill="#cbc2a4" d=" M 460.27 296.32 C 464.73 294.06 471.13 297.73 470.28 303.00 C 470.29 308.01 464.33 311.53 460.00 308.93 C 454.93 306.65 454.96 298.29 460.27 296.32 Z" />
<path fill="#cbc2a4" d=" M 23.28 299.39 C 27.71 297.54 33.23 301.12 33.01 305.99 C 33.19 311.13 27.08 314.65 22.61 312.34 C 17.50 309.95 17.74 301.13 23.28 299.39 Z" />
<path fill="#443e2e" d=" M 229.29 304.21 C 232.45 301.89 236.72 301.81 240.33 303.04 C 242.74 303.97 245.08 302.56 247.43 302.17 C 247.78 307.40 242.35 309.41 238.85 311.91 C 235.72 313.98 236.94 318.44 239.32 320.59 C 244.16 324.73 251.05 324.54 256.37 327.71 C 259.14 329.35 257.06 332.80 255.72 334.72 C 254.35 337.15 251.20 336.69 248.85 336.68 C 245.08 336.28 241.05 336.28 237.68 334.31 C 233.70 332.13 230.27 329.00 225.98 327.40 C 224.46 330.30 223.75 334.54 219.75 334.86 C 217.20 332.80 218.76 329.06 218.76 326.24 C 218.85 320.76 223.71 317.38 225.58 312.60 C 227.02 309.90 227.31 306.59 229.29 304.21 Z" />
<path fill="#e4e9e4" d=" M 72.59 310.55 C 86.45 310.42 100.31 310.47 114.17 310.52 C 114.75 314.47 116.32 318.17 118.83 321.28 C 104.76 321.21 90.69 321.26 76.62 321.26 C 75.20 317.72 73.86 314.15 72.59 310.55 Z" />
<path fill="#e4e9e4" d=" M 174.04 310.51 C 188.21 310.45 202.38 310.50 216.56 310.49 C 214.79 314.01 213.10 317.57 211.49 321.17 C 199.78 321.32 188.06 321.27 176.34 321.20 C 175.59 317.63 174.83 314.07 174.04 310.51 Z" />
<path fill="#e4e9e4" d=" M 375.38 310.50 C 388.70 310.50 402.02 310.41 415.35 310.55 C 414.07 314.15 412.70 317.73 411.26 321.27 C 399.24 321.22 387.22 321.30 375.20 321.22 C 375.28 317.64 375.34 314.07 375.38 310.50 Z" />
<path fill="#cbc2a4" d=" M 451.31 324.31 C 455.48 322.28 461.50 325.10 461.55 330.03 C 462.04 335.13 456.39 339.56 451.66 337.15 C 446.26 335.17 445.98 326.54 451.31 324.31 Z" />
<path fill="#cbc2a4" d=" M 32.39 326.55 C 37.29 324.75 42.85 329.54 41.55 334.65 C 40.73 340.51 31.63 342.55 28.74 337.23 C 26.12 333.54 27.91 327.70 32.39 326.55 Z" />
<path fill="#e4e9e4" d=" M 80.20 329.26 C 93.97 329.27 107.74 329.13 121.52 329.33 C 123.72 331.36 125.71 334.38 129.00 334.51 C 132.38 334.31 135.26 332.26 138.17 330.73 C 138.87 333.84 139.60 336.94 140.37 340.04 C 126.59 339.98 112.81 339.99 99.03 340.01 C 94.69 339.97 90.30 340.43 86.01 339.66 C 83.19 336.78 81.95 332.80 80.20 329.26 Z" />
<path fill="#e4e9e4" d=" M 175.94 329.26 C 187.73 329.21 199.52 329.24 211.31 329.24 C 211.77 332.79 212.18 336.35 212.47 339.93 C 199.61 340.07 186.76 340.00 173.90 339.98 C 174.58 336.40 175.26 332.83 175.94 329.26 Z" />
<path fill="#e4e9e4" d=" M 369.34 329.26 C 382.14 329.24 394.95 329.16 407.75 329.31 C 406.31 332.35 405.05 335.52 403.15 338.32 C 402.00 340.54 399.06 339.78 397.03 340.08 C 384.94 339.96 372.84 340.02 360.75 339.99 C 363.50 336.32 366.35 332.74 369.34 329.26 Z" />
<path fill="#e4e9e4" d=" M 90.29 347.83 C 107.82 347.68 125.35 347.74 142.88 347.79 C 143.45 351.36 144.03 354.92 144.62 358.49 C 131.08 358.59 117.54 358.39 104.00 358.62 C 101.80 358.51 99.46 358.75 97.40 357.86 C 94.28 355.12 92.49 351.27 90.29 347.83 Z" />
<path fill="#e4e9e4" d=" M 171.54 347.77 C 178.67 347.74 185.80 347.62 192.92 347.94 C 187.98 353.93 179.62 358.94 171.76 356.29 C 170.82 353.55 171.42 350.60 171.54 347.77 Z" />
<path fill="#443e2e" d=" M 200.64 347.50 C 203.14 348.62 206.70 349.64 206.88 352.93 C 208.44 362.24 210.14 371.96 208.18 381.33 C 207.99 383.90 205.20 384.89 203.00 384.13 C 200.15 384.16 200.69 380.81 200.15 378.90 C 197.94 380.25 195.74 382.09 193.00 382.03 C 188.08 382.44 183.55 378.48 182.36 373.86 C 181.31 369.11 183.98 364.50 187.24 361.27 C 190.75 357.70 195.38 355.61 200.06 354.06 C 200.23 351.87 200.42 349.68 200.64 347.50 Z" />
<path fill="#443e2e" d=" M 270.72 351.76 C 271.24 349.82 272.90 348.34 274.95 348.31 C 280.64 347.79 286.31 348.95 291.96 349.47 C 292.12 353.48 290.88 357.37 288.45 360.55 C 287.06 358.54 285.99 356.34 284.56 354.37 C 282.50 353.30 280.10 354.09 277.98 354.57 C 277.71 363.46 279.31 372.29 278.98 381.19 C 278.93 382.31 278.61 383.36 278.01 384.33 C 274.79 384.44 270.73 383.90 268.91 380.89 C 269.54 377.56 271.32 374.48 271.33 371.01 C 272.26 364.55 268.38 358.10 270.72 351.76 Z" />
<path fill="#e4e9e4" d=" M 353.77 347.84 C 368.40 347.67 383.04 347.71 397.67 347.83 C 395.41 351.53 392.97 355.12 390.35 358.57 C 375.64 358.52 360.93 358.40 346.22 358.63 C 349.84 355.91 352.32 352.09 353.77 347.84 Z" />
<path fill="#cbc2a4" d=" M 440.31 349.42 C 444.67 347.60 450.49 351.09 450.05 356.03 C 450.10 361.08 444.15 364.88 439.68 362.25 C 434.49 359.87 434.76 351.18 440.31 349.42 Z" />
<path fill="#443e2e" d=" M 250.81 353.88 C 252.10 351.74 254.72 348.83 257.45 350.53 C 259.74 352.78 260.75 356.35 260.52 359.51 C 258.92 362.99 255.69 365.30 253.27 368.17 C 250.89 371.13 247.15 372.27 244.08 374.31 C 244.69 378.20 247.49 382.81 244.38 386.32 C 238.27 392.09 229.08 390.22 221.89 387.86 C 219.26 387.20 219.25 382.53 222.07 382.25 C 226.93 381.07 231.12 385.87 235.91 384.26 C 237.49 383.75 238.86 382.79 240.29 381.98 C 239.66 379.23 239.15 376.15 236.90 374.20 C 231.91 370.08 224.17 371.24 219.53 366.71 C 217.90 362.37 219.68 357.44 221.41 353.35 C 222.09 350.76 226.79 349.75 227.47 352.69 C 227.31 356.79 225.38 361.44 227.96 365.16 C 230.45 368.95 237.38 366.47 236.90 361.96 C 236.87 358.53 234.80 353.70 238.62 351.60 C 240.70 349.30 243.81 351.74 244.62 354.02 C 244.42 356.73 243.02 359.18 242.63 361.87 C 243.41 363.94 245.40 365.11 247.04 366.43 C 248.54 364.77 250.55 363.23 251.01 360.93 C 250.85 358.60 249.04 356.00 250.81 353.88 Z" />
<path fill="#cbc2a4" d=" M 44.44 352.57 C 48.69 351.02 54.04 354.26 53.79 359.01 C 54.26 364.28 47.97 368.04 43.41 365.61 C 38.30 362.98 38.53 354.08 44.44 352.57 Z" />
<path fill="#ffffff" d=" M 188.91 366.88 C 192.43 363.22 196.68 360.30 201.08 357.79 C 201.48 361.54 201.45 365.35 200.78 369.07 C 200.51 372.48 197.07 374.66 193.99 375.22 C 189.86 376.03 185.90 370.16 188.91 366.88 Z" />
<path fill="#e4e9e4" d=" M 103.66 366.56 C 118.39 366.46 133.13 366.39 147.86 366.59 C 150.61 368.88 153.28 371.78 157.00 372.37 C 162.14 373.05 166.92 370.58 171.38 368.37 C 171.69 371.32 172.02 374.27 172.36 377.22 C 156.25 377.32 140.14 377.16 124.03 377.30 C 120.44 377.26 116.77 377.67 113.26 376.78 C 109.23 374.30 106.73 370.05 103.66 366.56 Z" />
<path fill="#e4e9e4" d=" M 252.48 376.43 C 257.40 373.67 261.95 370.29 265.82 366.17 C 265.38 369.87 264.95 373.58 264.50 377.28 C 260.48 377.38 256.45 377.13 252.48 376.43 Z" />
<path fill="#e4e9e4" d=" M 285.97 366.53 C 292.21 366.45 298.46 366.42 304.71 366.55 C 306.02 370.53 307.99 374.27 310.88 377.33 C 302.82 377.16 294.77 377.32 286.71 377.22 C 286.46 373.65 286.21 370.09 285.97 366.53 Z" />
<path fill="#e4e9e4" d=" M 322.11 377.20 C 325.68 373.62 329.25 370.07 332.82 366.49 C 349.97 366.52 367.12 366.38 384.28 366.58 C 381.30 370.24 378.18 373.78 374.97 377.23 C 357.35 377.25 339.73 377.30 322.11 377.20 Z" />
<path fill="#cbc2a4" d=" M 428.18 373.55 C 433.15 373.35 437.07 379.10 434.61 383.58 C 432.67 388.21 425.93 389.19 422.84 385.20 C 418.94 380.96 422.33 373.25 428.18 373.55 Z" />
<path fill="#cbc2a4" d=" M 58.42 377.50 C 62.34 374.91 68.50 377.18 69.17 382.01 C 70.30 386.77 65.70 391.41 60.94 390.50 C 54.97 389.64 52.96 380.43 58.42 377.50 Z" />
<path fill="#e4e9e4" d=" M 120.92 385.02 C 138.63 384.96 156.35 385.05 174.06 384.94 C 180.60 384.56 184.17 391.32 190.10 392.85 C 197.82 394.80 205.72 392.16 212.80 389.14 C 216.40 391.80 220.24 394.12 224.30 395.99 C 197.89 395.50 171.45 395.85 145.03 395.80 C 140.43 395.56 135.12 396.89 131.14 393.90 C 127.49 391.23 124.30 388.01 120.92 385.02 Z" />
<path fill="#e4e9e4" d=" M 252.81 385.11 C 256.63 385.00 260.45 384.98 264.28 385.06 C 266.81 388.65 270.08 392.62 274.98 392.25 C 279.92 392.78 283.17 388.61 285.82 385.12 C 312.85 384.88 339.88 384.99 366.91 385.07 C 361.72 389.12 357.38 396.08 350.05 395.82 C 313.00 395.77 275.93 395.63 238.87 395.89 C 244.65 394.01 249.71 390.39 252.81 385.11 Z" />
<path fill="#cbc2a4" d=" M 408.41 395.58 C 413.07 393.79 418.66 398.05 417.97 403.04 C 417.37 408.29 410.39 411.38 406.32 407.74 C 402.10 404.58 403.35 397.12 408.41 395.58 Z" />
<path fill="#cbc2a4" d=" M 76.42 398.40 C 81.27 395.67 87.84 400.34 86.59 405.83 C 86.05 411.39 78.07 414.01 74.55 409.52 C 71.15 406.35 72.24 400.30 76.42 398.40 Z" />
<path fill="#e4e9e4" d=" M 145.13 403.87 C 186.75 403.59 228.38 403.83 270.00 403.75 C 294.26 403.83 318.52 403.58 342.77 403.88 C 337.89 407.06 332.98 410.24 327.75 412.83 C 322.56 415.46 316.56 414.39 310.98 414.53 C 266.33 414.50 221.67 414.51 177.02 414.53 C 171.42 414.38 165.39 415.48 160.18 412.86 C 154.95 410.24 150.03 407.05 145.13 403.87 Z" />
<path fill="#cbc2a4" d=" M 388.24 415.36 C 392.94 413.79 398.16 418.18 397.43 423.07 C 396.82 428.40 389.43 431.34 385.55 427.43 C 381.56 424.05 383.00 416.57 388.24 415.36 Z" />
<path fill="#cbc2a4" d=" M 97.21 417.25 C 101.69 415.13 107.34 418.96 106.98 423.90 C 107.15 429.41 99.90 433.27 95.68 429.40 C 91.24 426.45 92.24 419.03 97.21 417.25 Z" />
<path fill="#e4e9e4" d=" M 182.13 422.37 C 210.09 422.06 238.06 422.32 266.02 422.24 C 279.28 422.32 292.55 422.06 305.81 422.38 C 266.33 436.91 221.60 436.97 182.13 422.37 Z" />
<path fill="#cbc2a4" d=" M 365.23 432.23 C 369.74 430.25 375.32 434.08 375.03 439.02 C 375.26 444.56 367.76 447.84 363.59 444.46 C 359.45 441.45 360.25 433.93 365.23 432.23 Z" />
<path fill="#cbc2a4" d=" M 119.33 434.35 C 123.62 431.74 129.74 435.00 129.78 440.05 C 130.40 445.35 123.93 449.85 119.36 446.67 C 114.52 444.34 114.54 436.70 119.33 434.35 Z" />
<path fill="#cbc2a4" d=" M 340.37 446.48 C 344.51 444.34 350.04 447.30 350.46 451.96 C 351.71 457.60 344.59 461.86 339.90 459.11 C 335.10 456.61 335.35 448.58 340.37 446.48 Z" />
<path fill="#cbc2a4" d=" M 143.43 447.50 C 147.61 445.13 153.38 448.23 153.68 453.03 C 154.43 458.15 148.56 462.90 143.83 460.21 C 138.33 458.29 138.23 449.83 143.43 447.50 Z" />
<path fill="#cbc2a4" d=" M 314.33 457.29 C 318.87 455.14 324.54 459.05 324.25 464.05 C 324.59 469.79 316.83 472.82 312.70 469.36 C 308.73 466.34 309.57 459.07 314.33 457.29 Z" />
<path fill="#cbc2a4" d=" M 172.40 458.46 C 177.94 456.16 183.73 462.85 181.04 468.08 C 179.18 473.57 170.91 473.38 168.37 468.59 C 166.14 464.91 168.38 459.71 172.40 458.46 Z" />
<path fill="#cbc2a4" d=" M 287.37 464.47 C 292.36 462.94 297.41 468.08 296.09 473.06 C 295.18 478.75 286.50 480.22 283.41 475.60 C 280.69 471.78 282.60 465.49 287.37 464.47 Z" />
<path fill="#cbc2a4" d=" M 201.47 465.55 C 206.50 463.55 212.05 468.68 210.62 473.85 C 209.89 479.09 203.06 480.88 199.21 477.75 C 194.94 474.59 196.45 467.06 201.47 465.55 Z" />
<path fill="#cbc2a4" d=" M 258.32 468.48 C 263.38 466.53 268.95 471.60 267.56 476.79 C 266.81 482.48 258.66 483.93 255.22 479.83 C 252.18 476.27 253.73 469.86 258.32 468.48 Z" />
<path fill="#cbc2a4" d=" M 229.42 469.34 C 234.77 466.48 241.26 472.52 239.12 478.05 C 237.99 482.93 231.38 484.16 227.81 481.20 C 223.98 478.19 224.90 471.21 229.42 469.34 Z" />
</svg>
