<svg xmlns="http://www.w3.org/2000/svg" width="587" height="340" viewBox="0 0 587 340" fill="none">
    <text style="&#10;    fill: black;&#10;    color: black;&#10;">kek</text>
    
<path d="M547.899 248.429C541.013 247.061 534.952 243.014 531.05 237.177C527.148 231.341 525.724 224.193 527.092 217.307C528.46 210.421 532.507 204.36 538.344 200.458C544.18 196.556 551.328 195.132 558.214 196.5C558.745 196.605 559.276 196.711 559.784 196.873L577.89 105.722L47.373 0.339844L29.2621 91.5142C36.1483 92.8821 42.2091 96.9295 46.1112 102.766C50.0133 108.603 51.4369 115.75 50.0691 122.636C48.7012 129.523 44.6538 135.583 38.8172 139.486C32.9807 143.388 25.8331 144.811 18.9469 143.443L0.835919 234.618L531.353 340L549.49 248.696C548.966 248.616 548.43 248.534 547.899 248.429Z" fill="#F9EFD4"/>
<path d="M530.218 237.733C534.268 243.79 540.558 247.99 547.704 249.41C547.905 249.45 548.107 249.486 548.306 249.521L530.567 338.824L2.01159 233.832L19.7364 144.601C26.5756 145.703 33.5937 144.181 39.373 140.317C45.43 136.267 49.6303 129.978 51.0499 122.831C52.4694 115.685 50.992 108.267 46.9425 102.21C43.0787 96.4309 37.1753 92.342 30.4342 90.7461L48.159 1.51551L576.714 106.508L559.009 195.641C558.812 195.599 558.618 195.561 558.434 195.524L558.409 195.519C551.263 194.099 543.845 195.577 537.788 199.626C531.731 203.676 527.531 209.966 526.111 217.112C524.692 224.258 526.169 231.676 530.218 237.733Z" stroke="#39291A" stroke-opacity="0.2" stroke-width="2"/>
<path opacity="0.2" d="M490.738 311.638L46.8436 223.463L85.8286 27.2037L529.724 115.379L490.738 311.638ZM50.5073 221.383L488.132 308.313L526.044 117.456L88.4351 30.5287L50.5073 221.383Z" fill="#333231"/>
<g opacity="0.2">
<path d="M428.788 247.119L426.507 258.602L478.873 269.004L481.154 257.521L428.788 247.119Z" fill="#333231"/>
<path d="M430.898 236.558L429.468 243.757L481.834 254.159L483.264 246.96L430.898 236.558Z" fill="#333231"/>
<path d="M431.944 231.294L431.269 234.693L483.634 245.095L484.31 241.696L431.944 231.294Z" fill="#333231"/>
<path d="M433.875 221.569L432.511 228.438L484.877 238.84L486.241 231.971L433.875 221.569Z" fill="#333231"/>
<path d="M435.02 215.748L434.164 220.056L486.53 230.458L487.386 226.15L435.02 215.748Z" fill="#333231"/>
<path d="M435.76 212.081L435.354 214.122L487.72 224.524L488.126 222.483L435.76 212.081Z" fill="#333231"/>
<path d="M494.728 189.248L496.57 179.971L444.204 169.569L442.362 178.846L494.728 189.248Z" fill="#333231"/>
<path d="M493.38 196.034L494.25 191.655L441.884 181.253L441.014 185.632L493.38 196.034Z" fill="#333231"/>
<path d="M491.066 207.683L492.825 198.831L440.459 188.429L438.701 197.281L491.066 207.683Z" fill="#333231"/>
<path d="M489.598 215.071L490.7 209.524L438.334 199.122L437.233 204.669L489.598 215.071Z" fill="#333231"/>
<path d="M488.468 220.759L489.176 217.195L436.81 206.793L436.102 210.357L488.468 220.759Z" fill="#333231"/>
<path d="M447.349 153.743L444.958 165.781L497.323 176.183L499.715 164.145L447.349 153.743Z" fill="#333231"/>
<path d="M448.769 146.529L448.094 149.928L500.46 160.33L501.135 156.931L448.769 146.529Z" fill="#333231"/>
<path d="M450.614 137.241L449.25 144.11L501.616 154.512L502.98 147.643L450.614 137.241Z" fill="#333231"/>
</g>
<path opacity="0.2" d="M439.92 99.677L437.865 99.2688L399.288 293.473L401.343 293.881L439.92 99.677Z" fill="#333231"/>
<path opacity="0.2" d="M404.799 265.729L53.3823 195.923L52.9741 197.979L404.391 267.784L404.799 265.729Z" fill="#333231"/>
<path opacity="0.2" d="M406.227 258.537L54.8105 188.731L54.6064 189.759L406.023 259.564L406.227 258.537Z" fill="#333231"/>
<path opacity="0.2" d="M82.6583 206.883L84.2021 212.636L89.8281 214.637L84.8295 217.876L84.6745 223.845L80.0349 220.089L74.3123 221.786L76.45 216.212L73.0691 211.308L79.0327 211.609L82.6583 206.883Z" fill="#333231"/>
<path opacity="0.2" d="M120.376 214.375L121.92 220.129L127.546 222.13L122.547 225.369L122.38 231.335L117.753 227.582L112.03 229.279L114.168 223.705L110.787 218.801L116.751 219.102L120.376 214.375Z" fill="#333231"/>
<path opacity="0.2" d="M158.394 221.927L159.938 227.681L165.552 229.679L160.565 232.921L160.399 238.887L155.771 235.134L150.048 236.831L152.186 231.257L148.805 226.353L154.769 226.654L158.394 221.927Z" fill="#333231"/>
<path opacity="0.2" d="M196.413 229.479L197.957 235.233L203.571 237.231L198.573 240.471L198.418 246.439L193.79 242.686L188.067 244.383L190.205 238.809L186.824 233.905L192.776 234.204L196.413 229.479Z" fill="#333231"/>
<path opacity="0.2" d="M234.432 237.032L235.975 242.785L241.59 244.784L236.591 248.023L236.436 253.991L231.808 250.238L226.086 251.935L228.223 246.361L224.843 241.457L230.794 241.756L234.432 237.032Z" fill="#333231"/>
<path opacity="0.2" d="M272.438 244.581L273.994 250.337L279.608 252.336L274.61 255.575L274.455 261.543L269.815 257.788L264.104 259.487L266.242 253.913L262.861 249.009L268.813 249.308L272.438 244.581Z" fill="#333231"/>
<path opacity="0.2" d="M310.457 252.133L312.013 257.889L317.627 259.888L312.628 263.127L312.473 269.095L307.834 265.34L302.123 267.039L304.261 261.465L300.88 256.561L306.831 256.86L310.457 252.133Z" fill="#333231"/>
<path opacity="0.2" d="M348.476 259.685L350.032 265.441L355.646 267.44L350.647 270.679L350.492 276.647L345.853 272.892L340.142 274.591L342.268 269.015L338.899 264.113L344.851 264.412L348.476 259.685Z" fill="#333231"/>
<path opacity="0.2" d="M386.495 267.238L388.051 272.993L393.665 274.992L388.666 278.231L388.511 284.2L383.872 280.444L378.161 282.144L380.299 276.569L376.918 271.665L382.87 271.964L386.495 267.238Z" fill="#333231"/>
<path d="M584.916 194.473C577.301 194.473 569.997 191.448 564.613 186.063C559.228 180.678 556.203 173.375 556.203 165.76C556.203 158.145 559.228 150.842 564.613 145.457C569.997 140.073 577.301 137.048 584.916 137.048C585.503 137.048 586.09 137.048 586.664 137.113V36.315H0V137.139C7.61504 137.139 14.9182 140.164 20.3028 145.549C25.6875 150.933 28.7125 158.236 28.7125 165.851C28.7125 173.466 25.6875 180.77 20.3028 186.154C14.9182 191.539 7.61504 194.564 0 194.564V295.388H586.664V194.42C586.09 194.446 585.503 194.473 584.916 194.473Z" fill="#F9EFD4"/>
<path d="M563.906 186.77C569.478 192.342 577.035 195.473 584.916 195.473C585.167 195.473 585.417 195.468 585.664 195.461V294.388H1V195.547C8.51725 195.294 15.6739 192.197 21.0099 186.861C26.5821 181.289 29.7125 173.732 29.7125 165.851C29.7125 157.971 26.5821 150.414 21.0099 144.841C15.6739 139.505 8.51724 136.409 1 136.156V37.315H585.664V136.052C585.416 136.047 585.173 136.048 584.941 136.048H584.916C577.035 136.048 569.478 139.178 563.906 144.75C558.333 150.322 555.203 157.88 555.203 165.76C555.203 173.64 558.333 181.198 563.906 186.77Z" stroke="#39291A" stroke-opacity="0.2" stroke-width="2"/>
<path xmlns="http://www.w3.org/2000/svg" opacity="0.2" d="M537.462 273.798H46.5879V56.768H537.462V273.798ZM50.0461 270.812H533.987V59.7545H50.0635L50.0461 270.812Z" fill="#333231">
    
</path>
<g opacity="0.2">
<path d="M457.922 218.249V230.948H515.83V218.249H457.922Z" fill="#333231"/>
<path d="M457.935 206.568V214.529H515.843V206.568H457.935Z" fill="#333231"/>
<path d="M457.935 200.748V204.506H515.843V200.748H457.935Z" fill="#333231"/>
<path d="M457.935 189.993V197.589H515.843V189.993H457.935Z" fill="#333231"/>
<path d="M457.922 183.56V188.323H515.83V183.56H457.922Z" fill="#333231"/>
<path d="M457.935 179.5V181.758H515.843V179.5H457.935Z" fill="#333231"/>
<path d="M515.843 142.748V132.49H457.935V142.748H515.843Z" fill="#333231"/>
<path d="M515.843 150.253V145.411H457.935V150.253H515.843Z" fill="#333231"/>
<path d="M515.843 163.134V153.346H457.935V163.134H515.843Z" fill="#333231"/>
<path d="M515.843 171.304V165.17H457.935V171.304H515.843Z" fill="#333231"/>
<path d="M515.843 177.595V173.653H457.935V177.595H515.843Z" fill="#333231"/>
<path d="M457.935 114.989V128.301H515.843V114.989H457.935Z" fill="#333231"/>
<path d="M457.922 107.014V110.773H515.83V107.014H457.922Z" fill="#333231"/>
<path d="M457.922 96.7432V104.339H515.83V96.7432H457.922Z" fill="#333231"/>
</g>
<path opacity="0.2" d="M438.605 59.0405H436.333V273.798H438.605V59.0405Z" fill="#333231"/>
<path opacity="0.2" d="M436.333 243.119H47.7241V245.391H436.333V243.119Z" fill="#333231"/>
<path opacity="0.2" d="M436.333 235.165H47.7241V236.301H436.333V235.165Z" fill="#333231"/>
<path opacity="0.2" d="M81.1853 248.591L84.0435 254.386L90.4516 255.326L85.8184 259.828L86.9147 266.21L81.1853 263.195L75.4558 266.21L76.5521 259.828L71.9189 255.326L78.3271 254.386L81.1853 248.591Z" fill="#333231"/>
<path opacity="0.2" d="M122.895 248.591L125.753 254.386L132.161 255.326L127.528 259.828L128.611 266.21L122.895 263.195L117.165 266.21L118.262 259.828L113.628 255.326L120.037 254.386L122.895 248.591Z" fill="#333231"/>
<path opacity="0.2" d="M164.937 248.591L167.795 254.386L174.19 255.326L169.57 259.828L170.654 266.21L164.937 263.195L159.208 266.21L160.304 259.828L155.671 255.326L162.079 254.386L164.937 248.591Z" fill="#333231"/>
<path opacity="0.2" d="M206.98 248.591L209.838 254.386L216.233 255.326L211.6 259.828L212.696 266.21L206.98 263.195L201.25 266.21L202.347 259.828L197.713 255.326L204.108 254.386L206.98 248.591Z" fill="#333231"/>
<path opacity="0.2" d="M249.022 248.591L251.88 254.386L258.275 255.326L253.642 259.828L254.738 266.21L249.022 263.195L243.292 266.21L244.389 259.828L239.755 255.326L246.15 254.386L249.022 248.591Z" fill="#333231"/>
<path opacity="0.2" d="M291.052 248.591L293.923 254.386L300.318 255.326L295.685 259.828L296.781 266.21L291.052 263.195L285.335 266.21L286.432 259.828L281.798 255.326L288.193 254.386L291.052 248.591Z" fill="#333231"/>
<path opacity="0.2" d="M333.094 248.591L335.965 254.386L342.36 255.326L337.727 259.828L338.824 266.21L333.094 263.195L327.378 266.21L328.474 259.828L323.841 255.326L330.236 254.386L333.094 248.591Z" fill="#333231"/>
<path opacity="0.2" d="M375.137 248.591L378.008 254.386L384.403 255.326L379.77 259.828L380.866 266.21L375.137 263.195L369.42 266.21L370.503 259.828L365.883 255.326L372.278 254.386L375.137 248.591Z" fill="#333231"/>
<path opacity="0.2" d="M417.179 248.591L420.05 254.386L426.445 255.326L421.812 259.828L422.909 266.21L417.179 263.195L411.463 266.21L412.559 259.828L407.926 255.326L414.321 254.386L417.179 248.591Z" fill="#333231"/>
</svg>