<svg xmlns="http://www.w3.org/2000/svg" width="320" height="216" viewBox="0 0 320 216" fill="none">
<path d="M333.07 157.237C328.706 156.37 324.865 153.804 322.392 150.105C319.919 146.406 319.016 141.876 319.883 137.512C320.75 133.147 323.315 129.306 327.014 126.833C330.714 124.36 335.244 123.458 339.608 124.324C339.945 124.391 340.281 124.458 340.603 124.561L352.079 66.7904L15.8418 0.00012207L4.36325 57.7856C8.72768 58.6525 12.569 61.2177 15.0421 64.9169C17.5151 68.616 18.4175 73.1461 17.5505 77.5106C16.6835 81.875 14.1183 85.7162 10.4192 88.1893C6.72005 90.6624 2.18997 91.5648 -2.17446 90.6978L-13.653 148.483L322.584 215.274L334.079 157.406C333.747 157.355 333.407 157.304 333.07 157.237Z" fill="#F9EFD4"/>
<path d="M321.56 150.661C324.181 154.581 328.251 157.299 332.876 158.218C332.883 158.219 332.89 158.22 332.897 158.222L321.798 214.098L-12.4773 147.697L-1.38298 91.8459C2.93177 92.4533 7.33337 91.4553 10.975 89.0207C14.8946 86.4002 17.6127 82.33 18.5313 77.7054C19.45 73.0808 18.4939 68.2807 15.8734 64.3611C13.4388 60.7195 9.75274 58.115 5.53344 57.0272L16.6278 1.17579L350.903 67.5764L339.824 123.348L339.803 123.344C335.178 122.425 330.378 123.381 326.459 126.002C322.539 128.622 319.821 132.692 318.902 137.317C317.984 141.941 318.94 146.742 321.56 150.661Z" stroke="#39291A" stroke-opacity="0.2" stroke-width="2"/>
<path opacity="0.2" d="M296.842 197.299L15.506 141.414L40.2144 17.0265L321.551 72.9114L296.842 197.299ZM17.828 140.096L295.19 195.191L319.219 74.2273L41.8663 19.1338L17.828 140.096Z" fill="#333231"/>
<g opacity="0.2">
<path d="M257.58 156.406L256.134 163.684L289.323 170.277L290.768 162.999L257.58 156.406Z" fill="#333231"/>
<path d="M258.917 149.713L258.011 154.276L291.2 160.868L292.106 156.306L258.917 149.713Z" fill="#333231"/>
<path d="M259.58 146.377L259.152 148.531L292.341 155.124L292.769 152.97L259.58 146.377Z" fill="#333231"/>
<path d="M260.805 140.213L259.94 144.567L293.129 151.159L293.994 146.806L260.805 140.213Z" fill="#333231"/>
<path d="M261.53 136.524L260.987 139.254L294.176 145.847L294.719 143.117L261.53 136.524Z" fill="#333231"/>
<path d="M261.999 134.199L261.742 135.493L294.931 142.086L295.188 140.792L261.999 134.199Z" fill="#333231"/>
<path d="M299.373 119.728L300.541 113.849L267.352 107.256L266.184 113.135L299.373 119.728Z" fill="#333231"/>
<path d="M298.518 124.029L299.069 121.254L265.88 114.661L265.329 117.436L298.518 124.029Z" fill="#333231"/>
<path d="M297.051 131.412L298.165 125.802L264.976 119.209L263.862 124.819L297.051 131.412Z" fill="#333231"/>
<path d="M296.122 136.095L296.82 132.579L263.631 125.986L262.933 129.502L296.122 136.095Z" fill="#333231"/>
<path d="M295.405 139.7L295.854 137.441L262.665 130.849L262.216 133.107L295.405 139.7Z" fill="#333231"/>
<path d="M269.343 97.2255L267.827 104.855L301.016 111.448L302.532 103.818L269.343 97.2255Z" fill="#333231"/>
<path d="M270.243 92.6535L269.815 94.8078L303.004 101.4L303.432 99.2462L270.243 92.6535Z" fill="#333231"/>
<path d="M271.414 86.7666L270.549 91.12L303.738 97.7127L304.603 93.3593L271.414 86.7666Z" fill="#333231"/>
</g>
<path opacity="0.2" d="M264.634 62.9591L263.332 62.7003L238.882 185.785L240.184 186.044L264.634 62.9591Z" fill="#333231"/>
<path opacity="0.2" d="M242.376 168.202L19.6509 123.959L19.3922 125.262L242.117 169.504L242.376 168.202Z" fill="#333231"/>
<path opacity="0.2" d="M243.28 163.643L20.5552 119.401L20.4258 120.052L243.15 164.294L243.28 163.643Z" fill="#333231"/>
<path opacity="0.2" d="M38.2049 130.905L39.1833 134.552L42.749 135.82L39.581 137.873L39.4827 141.656L36.5422 139.275L32.9152 140.351L34.2701 136.818L32.1274 133.71L35.907 133.901L38.2049 130.905Z" fill="#333231"/>
<path opacity="0.2" d="M62.1101 135.654L63.0886 139.301L66.6543 140.569L63.4863 142.622L63.3805 146.403L60.4475 144.024L56.8205 145.1L58.1754 141.567L56.0326 138.459L59.8123 138.65L62.1101 135.654Z" fill="#333231"/>
<path opacity="0.2" d="M86.2068 140.44L87.1853 144.087L90.7435 145.353L87.5829 147.408L87.4772 151.189L84.5442 148.81L80.9172 149.886L82.2721 146.353L80.1293 143.245L83.909 143.436L86.2068 140.44Z" fill="#333231"/>
<path opacity="0.2" d="M110.303 145.226L111.281 148.873L114.839 150.14L111.671 152.193L111.573 155.975L108.64 153.597L105.013 154.672L106.368 151.139L104.225 148.031L107.997 148.221L110.303 145.226Z" fill="#333231"/>
<path opacity="0.2" d="M134.397 150.013L135.375 153.66L138.933 154.926L135.765 156.98L135.667 160.762L132.734 158.383L129.107 159.459L130.462 155.926L128.319 152.818L132.091 153.007L134.397 150.013Z" fill="#333231"/>
<path opacity="0.2" d="M158.486 154.798L159.472 158.446L163.03 159.713L159.862 161.766L159.764 165.548L156.823 163.168L153.204 164.245L154.559 160.712L152.416 157.604L156.188 157.794L158.486 154.798Z" fill="#333231"/>
<path opacity="0.2" d="M182.582 159.585L183.568 163.233L187.126 164.499L183.958 166.553L183.86 170.335L180.919 167.955L177.3 169.032L178.654 165.499L176.512 162.391L180.284 162.58L182.582 159.585Z" fill="#333231"/>
<path opacity="0.2" d="M206.678 164.371L207.664 168.019L211.223 169.286L208.054 171.339L207.956 175.121L205.016 172.741L201.396 173.818L202.744 170.284L200.608 167.177L204.381 167.367L206.678 164.371Z" fill="#333231"/>
<path opacity="0.2" d="M230.774 169.157L231.76 172.805L235.318 174.072L232.15 176.125L232.052 179.908L229.111 177.527L225.492 178.604L226.847 175.072L224.704 171.963L228.476 172.153L230.774 169.157Z" fill="#333231"/>
<path d="M319.046 125.891C314.892 125.891 310.909 124.241 307.972 121.304C305.035 118.367 303.385 114.383 303.385 110.229C303.385 106.076 305.035 102.092 307.972 99.155C310.909 96.2179 314.892 94.5679 319.046 94.5679C319.366 94.5679 319.687 94.5679 320 94.6035V9.62268H0V94.6177C4.15367 94.6177 8.13723 96.2677 11.0743 99.2048C14.0114 102.142 15.6614 106.125 15.6614 110.279C15.6614 114.433 14.0114 118.416 11.0743 121.353C8.13723 124.291 4.15367 125.941 0 125.941V210.936H320V125.862C319.687 125.877 319.366 125.891 319.046 125.891Z" fill="#F9EFD4"/>
<path d="M307.265 122.011C310.378 125.124 314.598 126.879 319 126.891V209.936H1V126.911C5.05412 126.667 8.89333 124.949 11.7814 122.061C14.9061 118.936 16.6614 114.698 16.6614 110.279C16.6614 105.86 14.9061 101.622 11.7814 98.4977C8.89332 95.6096 5.05412 93.8913 1 93.6477V10.6227H319V93.5679C314.598 93.5801 310.378 95.3341 307.265 98.4479C304.14 101.572 302.385 105.81 302.385 110.229C302.385 114.648 304.14 118.886 307.265 122.011Z" stroke="#39291A" stroke-opacity="0.2" stroke-width="2"/>
<path opacity="0.2" d="M293.163 199.16H25.4121V20.7791H293.163V199.16ZM27.2984 197.531H291.267V22.4081H27.3079L27.2984 197.531Z" fill="#333231"/>
<g opacity="0.2">
<path d="M249.777 138.86V145.787H281.363V138.86H249.777Z" fill="#333231"/>
<path d="M249.784 132.489V136.831H281.37V132.489H249.784Z" fill="#333231"/>
<path d="M249.784 129.314V131.364H281.37V129.314H249.784Z" fill="#333231"/>
<path d="M249.784 123.448V127.591H281.37V123.448H249.784Z" fill="#333231"/>
<path d="M249.777 119.938V122.537H281.363V119.938H249.777Z" fill="#333231"/>
<path d="M249.784 117.724V118.956H281.37V117.724H249.784Z" fill="#333231"/>
<path d="M281.37 97.6775V92.0821H249.784V97.6775H281.37Z" fill="#333231"/>
<path d="M281.37 101.771V99.1298H249.784V101.771H281.37Z" fill="#333231"/>
<path d="M281.37 108.797V103.458H249.784V108.797H281.37Z" fill="#333231"/>
<path d="M281.37 113.254V109.908H249.784V113.254H281.37Z" fill="#333231"/>
<path d="M281.37 116.685V114.535H249.784V116.685H281.37Z" fill="#333231"/>
<path d="M249.784 82.5357V89.7969H281.37V82.5357H249.784Z" fill="#333231"/>
<path d="M249.777 78.1861V80.2363H281.363V78.1861H249.777Z" fill="#333231"/>
<path d="M249.777 72.5837V76.7268H281.363V72.5837H249.777Z" fill="#333231"/>
</g>
<path opacity="0.2" d="M239 22H238V199H239V22Z" fill="#333231"/>
<path opacity="0.2" d="M238.001 181.425H26.0312V182.665H238.001V181.425Z" fill="#333231"/>
<path opacity="0.2" d="M238.001 177.087H26.0312V177.706H238.001V177.087Z" fill="#333231"/>
<path opacity="0.2" d="M44.2829 184.41L45.8419 187.571L49.3373 188.084L46.8101 190.54L47.4081 194.021L44.2829 192.376L41.1577 194.021L41.7557 190.54L39.2285 188.084L42.7239 187.571L44.2829 184.41Z" fill="#333231"/>
<path opacity="0.2" d="M67.0339 184.41L68.5929 187.571L72.0882 188.084L69.5611 190.54L70.1519 194.021L67.0339 192.376L63.9087 194.021L64.5067 190.54L61.9795 188.084L65.4748 187.571L67.0339 184.41Z" fill="#333231"/>
<path opacity="0.2" d="M89.9665 184.41L91.5255 187.571L95.0137 188.084L92.4937 190.54L93.0845 194.021L89.9665 192.376L86.8413 194.021L87.4393 190.54L84.9121 188.084L88.4075 187.571L89.9665 184.41Z" fill="#333231"/>
<path opacity="0.2" d="M112.899 184.41L114.458 187.571L117.946 188.084L115.419 190.54L116.017 194.021L112.899 192.376L109.774 194.021L110.372 190.54L107.845 188.084L111.333 187.571L112.899 184.41Z" fill="#333231"/>
<path opacity="0.2" d="M135.831 184.41L137.39 187.571L140.878 188.084L138.351 190.54L138.949 194.021L135.831 192.376L132.706 194.021L133.304 190.54L130.776 188.084L134.265 187.571L135.831 184.41Z" fill="#333231"/>
<path opacity="0.2" d="M158.756 184.41L160.322 187.571L163.811 188.084L161.283 190.54L161.881 194.021L158.756 192.376L155.638 194.021L156.236 190.54L153.709 188.084L157.197 187.571L158.756 184.41Z" fill="#333231"/>
<path opacity="0.2" d="M181.689 184.41L183.255 187.571L186.743 188.084L184.216 190.54L184.814 194.021L181.689 192.376L178.571 194.021L179.169 190.54L176.642 188.084L180.13 187.571L181.689 184.41Z" fill="#333231"/>
<path opacity="0.2" d="M204.621 184.41L206.188 187.571L209.676 188.084L207.149 190.54L207.747 194.021L204.621 192.376L201.503 194.021L202.094 190.54L199.574 188.084L203.062 187.571L204.621 184.41Z" fill="#333231"/>
<path opacity="0.2" d="M227.553 184.41L229.119 187.571L232.607 188.084L230.08 190.54L230.678 194.021L227.553 192.376L224.435 194.021L225.033 190.54L222.506 188.084L225.994 187.571L227.553 184.41Z" fill="#333231"/>





</svg>