<svg xmlns="http://www.w3.org/2000/svg" viewBox="0 0 80 95"><title>adres</title><text transform="translate(22.2 69.75)" style="font-size:13px;fill:#005d4c;font-family:Proxima Nova;font-weight:700">адрес</text><path d="M40,52.11l-1.15-1.5c-0.37-.49-3.75-4.91-7.11-10.26A75.54,75.54,0,0,1,27.1,32a30.86,30.86,0,0,1-1.54-4,12.45,12.45,0,0,1-.6-3.49,15,15,0,1,1,30.07,0,12.45,12.45,0,0,1-.6,3.49,30.86,30.86,0,0,1-1.54,4,75.54,75.54,0,0,1-4.63,8.35c-3.35,5.34-6.74,9.77-7.11,10.26Zm0-41A13.47,13.47,0,0,0,26.55,24.55c0,3,2.26,8.16,6.53,15,3.1,4.93,6.3,9.18,6.92,10,0.69-.9,3.82-5.06,6.92-10,4.27-6.8,6.53-12,6.53-15A13.47,13.47,0,0,0,40,11.1Zm0,21.62a8.06,8.06,0,1,1,8.06-8.06A8.07,8.07,0,0,1,40,32.72Zm0-14.54a6.48,6.48,0,1,0,6.48,6.48A6.48,6.48,0,0,0,40,18.18Z" style="fill:#015d4c"/></svg>