<svg xmlns="http://www.w3.org/2000/svg" viewBox="0 0 80 95"><title>bilety</title><text transform="translate(17.65 69.75)" style="font-size:13px;fill:#005d4c;font-family:Proxima Nova;font-weight:700">билеты</text><path d="M35.65,53.41A0.9,0.9,0,0,1,35,53.15l-3.59-3.59a0.91,0.91,0,0,1,0-1.28,4.17,4.17,0,0,0-5.9-5.9,0.91,0.91,0,0,1-1.28,0l-3.59-3.59a0.91,0.91,0,0,1,0-1.28L48.34,9.81a0.91,0.91,0,0,1,1.28,0l3.59,3.59a0.91,0.91,0,0,1,0,1.28,4.17,4.17,0,1,0,5.9,5.9,0.91,0.91,0,0,1,1.28,0L64,24.17a0.91,0.91,0,0,1,0,1.28L36.29,53.15A0.9,0.9,0,0,1,35.65,53.41Zm-2.36-4.54,2.36,2.36L62.06,24.81,59.7,22.46a6,6,0,0,1-8.37-8.37L49,11.73,22.57,38.15l2.36,2.36A6,6,0,0,1,33.29,48.87Z" style="fill:#015d4c"/><path d="M49,28.8a0.9,0.9,0,0,1-.64-0.27l-3.08-3.08a0.91,0.91,0,0,1,1.28-1.28l3.08,3.08A0.91,0.91,0,0,1,49,28.8Z" style="fill:#015d4c"/><path d="M54.62,34.44A0.9,0.9,0,0,1,54,34.17l-2.83-2.83a0.91,0.91,0,0,1,1.28-1.28l2.83,2.83A0.91,0.91,0,0,1,54.62,34.44Z" style="fill:#015d4c"/><path d="M43,22.81a0.9,0.9,0,0,1-.64-0.27l-2.74-2.74a0.91,0.91,0,0,1,1.28-1.28l2.74,2.74A0.91,0.91,0,0,1,43,22.81Z" style="fill:#015d4c"/></svg>