<svg xmlns="http://www.w3.org/2000/svg" viewBox="0 0 80 95"><title>ekskursii</title><text transform="translate(9.09 69.75)" style="font-size:13px;fill:#005d4c;font-family:Proxima Nova;font-weight:700">э<tspan x="6.46" y="0">к</tspan><tspan x="13.23" y="0">скурсии</tspan></text><path d="M38.72,25.72c-0.26,0-.53,0-0.8,0l0.18-2A5.79,5.79,0,0,0,44,20.51a0.44,0.44,0,0,0,0,.13l2-.32a4.09,4.09,0,0,1-1.35,2.85A8.15,8.15,0,0,1,38.72,25.72Z" style="fill:#015d4c"/><path d="M47.18,25.27a3.43,3.43,0,0,1-2.32-.93,3.18,3.18,0,0,1-.79-3.62L46,21.51a1.13,1.13,0,0,0,.28,1.33,1.28,1.28,0,0,0,1.38.28l0.93,1.83A3.05,3.05,0,0,1,47.18,25.27Z" style="fill:#015d4c"/><path d="M43.16,32.5a6.81,6.81,0,1,0-6.81-6.81A6.82,6.82,0,0,0,43.16,32.5Zm0-11.76a4.95,4.95,0,1,1-4.95,4.95A5,5,0,0,1,43.16,20.75Z" style="fill:#015d4c"/><path d="M36.3,42.54a5.17,5.17,0,0,0-1.46-3.25l-0.17-.18L24.07,35.79a1.77,1.77,0,0,1-1.1-1l-3.9-9.15a1.77,1.77,0,1,1,3.26-1.39l3.58,8.4,9.71,3H35.9a5.13,5.13,0,0,1,.63,0H49.78c3.26,0,5.91,3,5.91,6.6V53.63h1.86V42.25c0-4.67-3.49-8.47-7.78-8.47H36.54c-0.22,0-.45,0-0.68,0l-8.57-2.69L24,23.52a3.64,3.64,0,0,0-3-2.19V5.91A0.93,0.93,0,0,0,20.12,5H8.21a0.93,0.93,0,0,0-.66,1.59l4,4L7.81,14.35a0.93,0.93,0,0,0,.68,1.59l10.69-.24v5.95a3.64,3.64,0,0,0-1.84,4.73l3.9,9.15a3.63,3.63,0,0,0,2.26,2l10.14,3.18a3.12,3.12,0,0,1,.8,1.8V53.63H36.3V42.54ZM10.78,14l2.77-2.77a0.93,0.93,0,0,0,0-1.32L10.46,6.84h8.72v7Z" style="fill:#015d4c"/><path d="M52,42.93a1.2,1.2,0,0,0-1,.56l-0.17.27,0.05,0.31a0.81,0.81,0,0,1,0,.13v9.43h2.33V44.19A1.24,1.24,0,0,0,52,42.93Z" style="fill:#015d4c"/></svg>