<svg xmlns="http://www.w3.org/2000/svg" viewBox="0 0 86.51 87.5"><title>social</title><path d="M25.65,3.87h35.2a22.14,22.14,0,0,1,22.27,22V61.63a22.14,22.14,0,0,1-22.27,22H25.65a22.14,22.14,0,0,1-22.27-22V25.87A22.14,22.14,0,0,1,25.65,3.87Z" style="fill:#f6e9c3;fill-rule:evenodd"/><path d="M70.22,56.29A3.73,3.73,0,0,0,70,55.93a28.25,28.25,0,0,0-5.42-6.27l-0.06-.06,0,0,0,0h0q-1.82-1.73-2.3-2.33a2.18,2.18,0,0,1-.4-2.3,21.43,21.43,0,0,1,2.55-3.72q1.16-1.5,1.84-2.41,4.91-6.53,4.26-8.34l-0.17-.28a1.66,1.66,0,0,0-.88-0.47,4.47,4.47,0,0,0-1.82-.07l-8.17.06a1.06,1.06,0,0,0-.57,0l-0.37.09-0.14.07-0.11.09a1.26,1.26,0,0,0-.31.3,2,2,0,0,0-.28.5,46.34,46.34,0,0,1-3,6.39q-1.05,1.76-1.93,3.05a14.68,14.68,0,0,1-1.48,1.9,10.29,10.29,0,0,1-1.08,1,1,1,0,0,1-.74.31l-0.48-.11a1.89,1.89,0,0,1-.64-0.7,3.11,3.11,0,0,1-.33-1.11q-0.08-.67-0.1-1.15t0-1.36q0-.88,0-1.19,0-1.08,0-2.34t0.07-2q0-.74,0-1.56a6.56,6.56,0,0,0-.1-1.29,4.42,4.42,0,0,0-.3-0.91A1.53,1.53,0,0,0,47,29a3.28,3.28,0,0,0-1-.38,18.88,18.88,0,0,0-3.83-.37q-5.28-.06-6.78.68a3.82,3.82,0,0,0-1.08.85q-0.51.62-.14,0.68a3.48,3.48,0,0,1,2.41,1.22L36.8,32a5.43,5.43,0,0,1,.4,1.31,13.17,13.17,0,0,1,.26,2.07,22.09,22.09,0,0,1,0,3.55q-0.14,1.48-.27,2.3a4.6,4.6,0,0,1-.38,1.33,5.63,5.63,0,0,1-.34.62,0.49,0.49,0,0,1-.14.14,2.13,2.13,0,0,1-.77.14,1.8,1.8,0,0,1-1-.4A6.81,6.81,0,0,1,33.41,42,14.61,14.61,0,0,1,32,40q-0.77-1.25-1.59-3L30,36.24q-0.43-.79-1.16-2.31T27.52,31a1.87,1.87,0,0,0-.68-0.91L26.7,30a1.94,1.94,0,0,0-.45-0.24,3,3,0,0,0-.65-0.18l-7.78.06a2,2,0,0,0-1.62.54l-0.11.17a0.92,0.92,0,0,0-.09.45,2.26,2.26,0,0,0,.17.77q1.7,4,3.7,7.72t3.48,6q1.48,2.27,3,4.29t2,2.58q0.5,0.57.78,0.85l0.71,0.68a16.84,16.84,0,0,0,2,1.63,34.13,34.13,0,0,0,2.92,1.87,15.86,15.86,0,0,0,3.73,1.5,12.9,12.9,0,0,0,4.14.47h3.26a2.26,2.26,0,0,0,1.5-.62l0.11-.14a1.88,1.88,0,0,0,.21-0.52,2.88,2.88,0,0,0,.1-0.78,9.35,9.35,0,0,1,.18-2.2,5.78,5.78,0,0,1,.48-1.48,3.63,3.63,0,0,1,.61-0.84,2.47,2.47,0,0,1,.48-0.41l0.23-.1a1.8,1.8,0,0,1,1.6.44,9.42,9.42,0,0,1,1.73,1.65q0.81,1,1.94,2.2a13.36,13.36,0,0,0,2,1.82l0.57,0.34a6.91,6.91,0,0,0,1.48.62,3.18,3.18,0,0,0,1.59.14L68,59.14a3.29,3.29,0,0,0,1.67-.36A1.41,1.41,0,0,0,70.4,58a2.2,2.2,0,0,0,0-1A3.56,3.56,0,0,0,70.22,56.29Z" style="fill:#827148"/></svg>