<svg xmlns="http://www.w3.org/2000/svg" viewBox="0 0 86.51 87.5"><title>social</title><path d="M25.65,3.87h35.2a22.14,22.14,0,0,1,22.27,22V61.63a22.14,22.14,0,0,1-22.27,22H25.65a22.14,22.14,0,0,1-22.27-22V25.87A22.14,22.14,0,0,1,25.65,3.87Z" style="fill:#f6e9c3;fill-rule:evenodd"/><path d="M43.25,70.07A23.75,23.75,0,1,1,67,46.32,23.78,23.78,0,0,1,43.25,70.07Zm0-39.28A15.53,15.53,0,1,0,58.78,46.32,15.55,15.55,0,0,0,43.25,30.79Z" style="fill:#827148"/><circle cx="68.57" cy="21.63" r="6.12" style="fill:#827148"/></svg>